<svg width="33" height="28" viewBox="0 0 33 28" fill="none" xmlns="http://www.w3.org/2000/svg">
  <path
    d="M18.8081 19.5156H11.2948C11.0278 19.5156 10.7867 19.6751 10.682 19.9208L9.26673 23.2418C9.16192 23.4876 8.92082 23.647 8.65396 23.647H5.79975C5.31773 23.647 4.99525 23.1503 5.19092 22.7092L13.1547 4.76328C13.2617 4.52244 13.5003 4.36719 13.7636 4.36719H16.364C16.6273 4.36719 16.8659 4.52244 16.9728 4.76328L24.9366 22.7092C25.1323 23.1503 24.8098 23.647 24.3278 23.647H21.4709C21.2055 23.647 20.9653 23.4892 20.8598 23.2453L19.4194 19.9174C19.3137 19.6735 19.0735 19.5156 18.8081 19.5156ZM12.1751 16.2106H17.9249L15.0639 9.21467L12.1751 16.2106Z"
    fill="#919EAB" />
  <path opacity="0.24"
    d="M27.761 4.02364C27.9535 4.02364 28.1096 4.17978 28.1096 4.37264V23.651C28.1096 23.8437 27.9535 24 27.761 24H25.5578C25.3652 24 25.2092 23.8437 25.2092 23.651C25.2092 23.4581 25.3654 23.3018 25.5578 23.3018H27.4124V19.1991H26.3151C26.1225 19.1991 25.9665 19.0428 25.9665 18.8501C25.9665 18.6572 26.1225 18.5009 26.3151 18.5009H27.4124V14.3521H25.5534C25.3609 14.3521 25.2048 14.196 25.2048 14.0031C25.2048 13.9999 25.2053 13.9967 25.2053 13.9933L25.2048 13.9836C25.2048 13.7908 25.3609 13.6346 25.5534 13.6346H27.4124V9.55945H26.3151C26.1225 9.55945 25.9665 9.40312 25.9665 9.21027C25.9665 9.01759 26.1225 8.86127 26.3151 8.86127H27.4124V4.72163H25.5578C25.3652 4.72163 25.2092 4.56531 25.2092 4.37264C25.2092 4.17978 25.3654 4.02364 25.5578 4.02364H27.761ZM19.1343 23.2811C19.3268 23.2811 19.4829 23.4372 19.4829 23.6301C19.4829 23.8175 19.3351 23.9706 19.1499 23.9787L19.1343 23.979H18.809C18.6164 23.979 18.4604 23.8227 18.4604 23.6301C18.4604 23.4372 18.6164 23.2811 18.809 23.2811H19.1343ZM17.6468 23.2811C17.8394 23.2811 17.9955 23.4372 17.9955 23.6301C17.9955 23.8175 17.8477 23.9706 17.6623 23.9787L17.6468 23.979H17.3214C17.129 23.979 16.9728 23.8227 16.9728 23.6301C16.9728 23.4372 17.129 23.2811 17.3214 23.2811H17.6468ZM16.1594 23.2811C16.3518 23.2811 16.508 23.4372 16.508 23.6301C16.508 23.8175 16.3603 23.9706 16.1749 23.9787L16.1594 23.979H15.8341C15.6414 23.979 15.4855 23.8227 15.4855 23.6301C15.4855 23.4372 15.6414 23.2811 15.8341 23.2811H16.1594ZM14.672 23.2811C14.8645 23.2811 15.0206 23.4372 15.0206 23.6301C15.0206 23.8175 14.8728 23.9706 14.6875 23.9787L14.672 23.979H14.3467C14.154 23.979 13.9981 23.8227 13.9981 23.6301C13.9981 23.4372 14.154 23.2811 14.3467 23.2811H14.672ZM13.1845 23.2811C13.3771 23.2811 13.5332 23.4372 13.5332 23.6301C13.5332 23.8175 13.3854 23.9706 13.2 23.9787L13.1845 23.979H12.8591C12.6667 23.979 12.5105 23.8227 12.5105 23.6301C12.5105 23.4372 12.6667 23.2811 12.8591 23.2811H13.1845ZM11.6971 23.2811C11.8895 23.2811 12.0457 23.4372 12.0457 23.6301C12.0457 23.8175 11.8978 23.9706 11.7126 23.9787L11.6971 23.979H11.3717C11.1791 23.979 11.0231 23.8227 11.0231 23.6301C11.0231 23.4372 11.1791 23.2811 11.3717 23.2811H11.6971ZM10.2097 23.2811C10.4021 23.2811 10.5583 23.4372 10.5583 23.6301C10.5583 23.8175 10.4105 23.9706 10.2252 23.9787L10.2097 23.979H9.88435C9.69172 23.979 9.53575 23.8227 9.53575 23.6301C9.53575 23.4372 9.69172 23.2811 9.88435 23.2811H10.2097ZM11.6101 15.8429C11.8026 15.8429 11.9587 15.999 11.9587 16.1919C11.9587 16.3845 11.8026 16.5408 11.6101 16.5408H11.2846C11.0922 16.5408 10.936 16.3845 10.936 16.1919C10.936 15.999 11.0922 15.8429 11.2846 15.8429H11.6101ZM10.1226 15.8429C10.3152 15.8429 10.4714 15.999 10.4714 16.1919C10.4714 16.3845 10.3152 16.5408 10.1226 16.5408H9.79724C9.60479 16.5408 9.44865 16.3845 9.44865 16.1919C9.44865 15.999 9.60479 15.8429 9.79724 15.8429H10.1226ZM8.63521 15.8429C8.82784 15.8429 8.9838 15.999 8.9838 16.1919C8.9838 16.3845 8.82784 16.5408 8.63521 16.5408H8.30986C8.11723 16.5408 7.96127 16.3845 7.96127 16.1919C7.96127 15.999 8.11723 15.8429 8.30986 15.8429H8.63521ZM7.14782 15.8429C7.34028 15.8429 7.49642 15.999 7.49642 16.1919C7.49642 16.3845 7.34028 16.5408 7.14782 16.5408H6.8223C6.62985 16.5408 6.47371 16.3845 6.47371 16.1919C6.47371 15.999 6.62985 15.8429 6.8223 15.8429H7.14782ZM5.66026 15.8429C5.85289 15.8429 6.00904 15.999 6.00904 16.1919C6.00904 16.3845 5.85289 16.5408 5.66026 16.5408H5.33492C5.14247 16.5408 4.98633 16.3845 4.98633 16.1919C4.98633 15.999 5.14247 15.8429 5.33492 15.8429H5.66026ZM24.4065 4C24.599 4 24.7551 4.15632 24.7551 4.349C24.7551 4.54185 24.599 4.698 24.4065 4.698H24.0812C23.8886 4.698 23.7326 4.54185 23.7326 4.349C23.7326 4.15632 23.8886 4 24.0812 4H24.4065ZM22.9191 4C23.1116 4 23.2677 4.15632 23.2677 4.349C23.2677 4.54185 23.1116 4.698 22.9191 4.698H22.5936C22.4012 4.698 22.245 4.54185 22.245 4.349C22.245 4.15632 22.4012 4 22.5936 4H22.9191ZM21.4316 4C21.6242 4 21.7804 4.15632 21.7804 4.349C21.7804 4.54185 21.6242 4.698 21.4316 4.698H21.1062C20.9138 4.698 20.7576 4.54185 20.7576 4.349C20.7576 4.15632 20.9136 4 21.1062 4H21.4316ZM19.9442 4C20.1367 4 20.2928 4.15632 20.2928 4.349C20.2928 4.54185 20.1367 4.698 19.9442 4.698H19.6189C19.4262 4.698 19.2703 4.54185 19.2703 4.349C19.2703 4.15632 19.4262 4 19.6189 4H19.9442ZM18.4568 4C18.6493 4 18.8054 4.15632 18.8054 4.349C18.8054 4.54185 18.6493 4.698 18.4568 4.698H18.1313C17.9389 4.698 17.7827 4.54185 17.7827 4.349C17.7827 4.15632 17.9389 4 18.1313 4H18.4568ZM16.9693 4C17.1619 4 17.318 4.15632 17.318 4.349C17.318 4.54185 17.1619 4.698 16.9693 4.698H16.6439C16.4515 4.698 16.2953 4.54185 16.2953 4.349C16.2953 4.15632 16.4515 4 16.6439 4H16.9693ZM15.4819 4C15.6743 4 15.8305 4.15632 15.8305 4.349C15.8305 4.54185 15.6743 4.698 15.4819 4.698H15.1565C14.9639 4.698 14.8079 4.54185 14.8079 4.349C14.8079 4.15632 14.9639 4 15.1565 4H15.4819ZM13.9945 4C14.187 4 14.3431 4.15632 14.3431 4.349C14.3431 4.54185 14.187 4.698 13.9945 4.698H13.669C13.4765 4.698 13.3204 4.54185 13.3204 4.349C13.3204 4.15632 13.4765 4 13.669 4H13.9945Z"
    fill="#919EAB" />
</svg>