<svg width="16" height="16" viewBox="0 0 16 16" fill="none" xmlns="http://www.w3.org/2000/svg">
  <path
    d="M6.66589 12.6673C6.51012 12.6676 6.35916 12.6133 6.23922 12.5139C6.10288 12.4009 6.01712 12.2383 6.00086 12.0619C5.9846 11.8856 6.03918 11.71 6.15256 11.5739L9.13922 8.00061L6.25922 4.42061C6.14738 4.28289 6.09504 4.10625 6.11381 3.92983C6.13258 3.7534 6.2209 3.59173 6.35922 3.48061C6.49867 3.35792 6.68297 3.29896 6.86774 3.31795C7.0525 3.33693 7.22097 3.43213 7.33256 3.58061L10.5526 7.58061C10.7548 7.82662 10.7548 8.18128 10.5526 8.42728L7.21922 12.4273C7.08358 12.5909 6.87805 12.6801 6.66589 12.6673Z"
    fill="#637381" />
</svg>