<svg width="34" height="28" viewBox="0 0 34 28" fill="none" xmlns="http://www.w3.org/2000/svg">
  <g opacity="0.24">
    <path
      d="M22.5 7.75H7.60331C6.67561 7.75 5.83407 8.15346 5.2477 8.79663C4.56171 9.54907 5.05938 10.6452 5.92799 11.1765L14.0716 16.1576C14.8411 16.6282 15.8094 16.6277 16.5784 16.1562L24.6996 11.177C24.7032 11.1748 24.7068 11.1726 24.7104 11.1704C23.4072 10.5828 22.5 9.27236 22.5 7.75Z"
      fill="#919EAB" />
    <path
      d="M26.25 16.5908C26.25 14.7165 24.1977 13.5655 22.5985 14.5429L15.9452 18.609C15.7386 18.7386 15.5062 18.7904 15.2996 18.7904C15.093 18.7904 14.8605 18.7386 14.6539 18.609L8.02882 14.5499C6.42964 13.5701 4.375 14.7209 4.375 16.5964V20.6823C4.375 22.4706 5.82128 23.9219 7.60331 23.9219H23.0217C24.8037 23.9219 26.25 22.4706 26.25 20.6823V16.5908Z"
      fill="#919EAB" />
  </g>
  <path fill-rule="evenodd" clip-rule="evenodd"
    d="M30 7.75C30 9.82107 28.3211 11.5 26.25 11.5C24.1789 11.5 22.5 9.82107 22.5 7.75C22.5 5.67893 24.1789 4 26.25 4C28.3211 4 30 5.67893 30 7.75ZM27.8125 9.07735C27.8125 9.33828 27.6603 9.46875 27.356 9.46875H25.5352C25.2309 9.46875 25.0787 9.33828 25.0787 9.07735C25.0787 8.95041 25.1154 8.85521 25.1889 8.79174C25.2624 8.72827 25.3778 8.69654 25.5352 8.69654C25.7699 8.69654 25.9602 8.50625 25.9602 8.27151V7.27502C25.9602 7.05958 25.7258 6.92597 25.5405 7.03575C25.481 7.07101 25.4198 7.08864 25.3568 7.08864C25.2589 7.08864 25.1749 7.04544 25.1049 6.95905C25.035 6.87266 25 6.77658 25 6.67079C25 6.52622 25.0612 6.41692 25.1837 6.34287L26.0232 5.85098C26.1771 5.76283 26.3223 5.71875 26.4587 5.71875C26.5986 5.71875 26.7115 5.76106 26.7972 5.84569C26.8829 5.93032 26.9257 6.04491 26.9257 6.18948V8.26627C26.9257 8.5039 27.1184 8.69654 27.356 8.69654C27.5134 8.69654 27.6288 8.72827 27.7023 8.79174C27.7758 8.85521 27.8125 8.95041 27.8125 9.07735Z"
    fill="#919EAB" />
</svg>