<svg width="40" height="28" viewBox="0 0 40 28" fill="none" xmlns="http://www.w3.org/2000/svg">
  <path opacity="0.24"
    d="M4.98633 5.33333C4.98633 4.59695 5.70267 4 6.58633 4H33.7863C34.67 4 35.3863 4.59695 35.3863 5.33333V8C35.3863 8.73638 34.67 9.33333 33.7863 9.33333H6.58633C5.70267 9.33333 4.98633 8.73638 4.98633 8V5.33333Z"
    fill="#919EAB" />
  <path opacity="0.24"
    d="M4.98633 12.6615C4.98633 11.9251 5.70267 11.3281 6.58633 11.3281H33.7863C34.67 11.3281 35.3863 11.9251 35.3863 12.6615V15.3281C35.3863 16.0645 34.67 16.6615 33.7863 16.6615H6.58633C5.70267 16.6615 4.98633 16.0645 4.98633 15.3281V12.6615Z"
    fill="#919EAB" />
  <path opacity="0.24"
    d="M4.98633 20.0052C4.98633 19.2688 5.70267 18.6719 6.58633 18.6719H33.7863C34.67 18.6719 35.3863 19.2688 35.3863 20.0052V22.6719C35.3863 23.4083 34.67 24.0052 33.7863 24.0052H6.58633C5.70267 24.0052 4.98633 23.4083 4.98633 22.6719V20.0052Z"
    fill="#919EAB" />
  <path opacity="0.48"
    d="M32.5854 6.05805L31.5837 6.87436L30.582 6.05805C30.4904 5.98599 30.3449 5.98702 30.2549 6.06037C30.1649 6.13372 30.1636 6.25231 30.252 6.32692L31.4187 7.27766C31.5098 7.35189 31.6575 7.35189 31.7486 7.27766L32.9153 6.32692C32.9759 6.27918 33.0003 6.20848 32.9789 6.142C32.9576 6.07552 32.8938 6.0236 32.8123 6.0062C32.7307 5.9888 32.6439 6.00862 32.5854 6.05805Z"
    fill="#919EAB" />
  <path opacity="0.48"
    d="M32.5854 13.394L31.5837 14.2103L30.582 13.394C30.4904 13.3219 30.3449 13.323 30.2549 13.3963C30.1649 13.4697 30.1636 13.5883 30.252 13.6629L31.4187 14.6136C31.5098 14.6878 31.6575 14.6878 31.7486 14.6136L32.9153 13.6629C32.9759 13.6151 33.0003 13.5444 32.9789 13.4779C32.9576 13.4115 32.8938 13.3595 32.8123 13.3421C32.7307 13.3247 32.6439 13.3446 32.5854 13.394Z"
    fill="#919EAB" />
  <path opacity="0.48"
    d="M32.5854 20.7221L31.5837 21.5384L30.582 20.7221C30.4904 20.6501 30.3449 20.6511 30.2549 20.7244C30.1649 20.7978 30.1636 20.9164 30.252 20.991L31.4187 21.9417C31.5098 22.016 31.6575 22.016 31.7486 21.9417L32.9153 20.991C32.9759 20.9432 33.0003 20.8725 32.9789 20.8061C32.9576 20.7396 32.8938 20.6877 32.8123 20.6703C32.7307 20.6529 32.6439 20.6727 32.5854 20.7221Z"
    fill="#919EAB" />
  <rect x="7.38623" y="5.83594" width="8" height="1.66667" rx="0.833333" fill="#919EAB" />
  <rect opacity="0.48" x="7.38623" y="13.1641" width="12.8" height="1.66667" rx="0.833333" fill="#919EAB" />
  <rect opacity="0.24" x="7.38623" y="20.5" width="16" height="1.66667" rx="0.833333" fill="#919EAB" />
</svg>