<svg width="24" height="24" viewBox="0 0 24 24" fill="none" xmlns="http://www.w3.org/2000/svg">
  <path
    d="M17.5505 10.5941C17.6091 10.0083 17.1491 9.5 16.5604 9.5C16.0492 9.5 15.6212 9.88735 15.5703 10.3961L15.2694 13.4059C15.2108 13.9917 15.6708 14.5 16.2595 14.5C16.7707 14.5 17.1987 14.1126 17.2496 13.6039L17.5505 10.5941Z"
    fill="#637381" />
  <path
    d="M12.7496 10.3961C12.6987 9.88735 12.2707 9.5 11.7595 9.5C11.1708 9.5 10.7108 10.0083 10.7694 10.5941L11.0703 13.6039C11.1212 14.1126 11.5492 14.5 12.0604 14.5C12.6491 14.5 13.1091 13.9917 13.0505 13.4059L12.7496 10.3961Z"
    fill="#637381" />
  <path
    d="M16.6602 19C16.6602 20.6569 18.0033 22 19.6602 22C21.317 22 22.6602 20.6569 22.6602 19C22.6602 17.3432 21.317 16 19.6602 16C18.0033 16 16.6602 17.3432 16.6602 19Z"
    fill="#637381" />
  <path
    d="M6.16016 19C6.16016 20.6569 7.50331 22 9.16016 22C10.817 22 12.1602 20.6569 12.1602 19C12.1602 17.3432 10.817 16 9.16016 16C7.50331 16 6.16016 17.3432 6.16016 19Z"
    fill="#637381" />
  <path opacity="0.32"
    d="M3.41016 2C2.71981 2 2.16016 2.55964 2.16016 3.25C2.16016 3.94036 2.71981 4.5 3.41016 4.5H4.25251C4.48986 4.5 4.69436 4.66593 4.74281 4.89825C4.96591 5.96765 5.59766 8.95895 6.10461 11C6.73135 13.5235 7.29935 15.3419 7.6574 16.4028C8.09928 16.1466 8.61259 15.9999 9.16016 15.9999C10.446 15.9999 11.5429 16.8088 11.9697 17.9456C12.7178 17.979 13.5912 18 14.6046 18C15.462 18 16.2042 17.985 16.8452 17.9601C17.2681 16.8157 18.3689 15.9999 19.6602 15.9999C20.2143 15.9999 20.7334 16.1501 21.1789 16.4121C21.5323 15.5225 22.0073 14.033 22.4102 11.75C22.6992 10.1122 22.8768 8.88275 22.986 7.9902C23.1201 6.8938 22.2647 6 21.1602 6H7.66016L7.03891 3.51493C6.81631 2.62459 6.01636 2 5.09861 2H3.41016Z"
    fill="#637381" />
</svg>