<svg width="212" height="167" viewBox="0 0 212 167" fill="none" xmlns="http://www.w3.org/2000/svg">
  <g opacity="0.4">
    <mask id="path-1-inside-1_321_39324" fill="white">
      <path
        d="M113.665 165.049C90.1857 165.049 68.9685 148.761 63.6938 124.909C58.8106 102.829 72.8016 80.8926 94.882 76.0095C103.394 74.1269 112.306 75.7029 119.656 80.3909C127.007 85.079 132.194 92.4949 134.076 101.007C137.202 115.219 128.235 129.278 114.031 132.437C104.323 134.544 94.4506 129.648 90.2536 120.644C90.2065 120.543 90.2171 120.425 90.2813 120.334C90.3456 120.243 90.4537 120.193 90.5646 120.203C90.6756 120.214 90.7725 120.283 90.8186 120.384C94.8919 129.123 104.474 133.875 113.896 131.829C127.765 128.746 136.521 115.017 133.469 101.141C129.623 83.7508 112.407 72.7708 95.0162 76.6168C73.2515 81.456 59.5111 103 64.301 124.775C70.3217 151.999 97.3672 169.249 124.592 163.228C142.798 159.214 158.303 147.367 166.959 130.854C167.011 130.755 167.111 130.692 167.222 130.687C167.333 130.683 167.439 130.738 167.498 130.832C167.557 130.926 167.562 131.045 167.51 131.144C158.769 147.818 143.111 159.782 124.726 163.836C121.094 164.641 117.385 165.048 113.665 165.049Z" />
      <path
        d="M174.172 95.0438C174.013 95.0438 173.88 94.9238 173.863 94.7659C173.61 92.4153 173.228 90.0804 172.717 87.772C164.596 51.0484 131.452 24.923 93.9078 25.6866C93.7361 25.69 93.5941 25.5536 93.5906 25.3819C93.5873 25.2102 93.7237 25.0682 93.8954 25.0647C131.89 24.3591 165.116 50.5338 173.325 87.6377C173.84 89.9686 174.226 92.3262 174.482 94.6997C174.491 94.7817 174.466 94.8638 174.415 94.928C174.363 94.9922 174.288 95.0332 174.206 95.0419C174.195 95.0438 174.183 95.0438 174.172 95.0438Z" />
      <path
        d="M2.6715 146.043C2.52573 146.043 2.39964 145.941 2.3682 145.799C-5.60722 109.86 6.8926 72.4527 34.8717 48.5281C34.9559 48.455 35.0729 48.4326 35.1782 48.4694C35.2835 48.5063 35.361 48.5967 35.3813 48.7064C35.4016 48.8161 35.3616 48.9282 35.2765 49.0003C7.47176 72.7757 -4.95022 109.95 2.97541 145.665C2.99586 145.757 2.97337 145.853 2.91426 145.927C2.85515 146 2.76584 146.043 2.6715 146.043Z" />
    </mask>
    <path
      d="M113.665 165.049V165.549H113.665L113.665 165.049ZM63.6938 124.909L64.182 124.801L63.6938 124.909ZM94.882 76.0095L94.9899 76.4977L94.882 76.0095ZM119.656 80.3909L119.387 80.8125L119.656 80.3909ZM134.076 101.007L134.564 100.9L134.564 100.899L134.076 101.007ZM114.031 132.437L114.137 132.925L114.139 132.925L114.031 132.437ZM90.2536 120.644L89.8004 120.856L89.8004 120.856L90.2536 120.644ZM90.2813 120.334L90.6899 120.622L90.2813 120.334ZM90.5646 120.203L90.5177 120.701L90.5646 120.203ZM90.8186 120.384L90.3633 120.591L90.3654 120.596L90.8186 120.384ZM113.896 131.829L114.002 132.318L114.005 132.317L113.896 131.829ZM133.469 101.141L133.957 101.034L133.957 101.034L133.469 101.141ZM95.0162 76.6168L94.9082 76.1286L94.9077 76.1287L95.0162 76.6168ZM64.301 124.775L63.8127 124.883L63.8128 124.883L64.301 124.775ZM124.592 163.228L124.484 162.74L124.484 162.74L124.592 163.228ZM166.959 130.854L167.402 131.086L167.402 131.086L166.959 130.854ZM167.222 130.687L167.242 131.187L167.222 130.687ZM167.498 130.832L167.075 131.099L167.498 130.832ZM167.51 131.144L167.068 130.91L167.067 130.911L167.51 131.144ZM124.726 163.836L124.618 163.347L124.618 163.347L124.726 163.836ZM173.863 94.7659L174.36 94.7126L174.36 94.7124L173.863 94.7659ZM172.717 87.772L173.206 87.664V87.664L172.717 87.772ZM93.9078 25.6866L93.9177 26.1865L93.918 26.1865L93.9078 25.6866ZM93.5906 25.3819L93.0907 25.3917L93.0907 25.3921L93.5906 25.3819ZM93.8954 25.0647L93.8861 24.5648L93.8853 24.5648L93.8954 25.0647ZM173.325 87.6377L173.813 87.5298L173.813 87.5297L173.325 87.6377ZM174.482 94.6997L174.979 94.6465L174.979 94.6462L174.482 94.6997ZM174.415 94.928L174.804 95.2419L174.415 94.928ZM174.206 95.0419L174.153 94.5448L174.139 94.5463L174.125 94.5485L174.206 95.0419ZM2.3682 145.799L2.85643 145.691L2.85632 145.691L2.3682 145.799ZM34.8717 48.5281L35.1966 48.9081L35.1994 48.9057L34.8717 48.5281ZM35.1782 48.4694L35.0131 48.9414L35.1782 48.4694ZM35.3813 48.7064L34.8896 48.7974V48.7974L35.3813 48.7064ZM35.2765 49.0003L34.9533 48.6187L34.9515 48.6203L35.2765 49.0003ZM2.97541 145.665L2.48728 145.773L2.4873 145.773L2.97541 145.665ZM2.91426 145.927L3.30397 146.24H3.30397L2.91426 145.927ZM113.665 164.549C113.346 164.549 113.028 164.546 112.711 164.54L112.692 165.54C113.016 165.546 113.34 165.549 113.665 165.549V164.549ZM108.91 164.323C108.277 164.263 107.646 164.191 107.018 164.107L106.886 165.098C107.526 165.184 108.169 165.257 108.815 165.319L108.91 164.323ZM103.265 163.461C102.643 163.33 102.024 163.187 101.409 163.032L101.166 164.002C101.793 164.159 102.424 164.305 103.058 164.439L103.265 163.461ZM97.7529 161.966C97.15 161.766 96.5514 161.554 95.9574 161.331L95.6063 162.267C96.212 162.494 96.8224 162.71 97.4371 162.915L97.7529 161.966ZM92.4438 159.862C91.8674 159.595 91.2962 159.317 90.7306 159.029L90.277 159.921C90.8537 160.214 91.4361 160.497 92.0238 160.769L92.4438 159.862ZM87.403 157.176C86.8601 156.847 86.3234 156.508 85.7932 156.158L85.243 156.993C85.7836 157.349 86.3308 157.696 86.8843 158.031L87.403 157.176ZM82.693 153.946C82.1904 153.558 81.695 153.161 81.2069 152.754L80.567 153.523C81.0646 153.937 81.5698 154.342 82.0822 154.738L82.693 153.946ZM78.3733 150.21C77.9174 149.768 77.4695 149.318 77.0298 148.86L76.3079 149.552C76.7562 150.019 77.2129 150.478 77.6777 150.928L78.3733 150.21ZM74.4995 146.013C74.0964 145.523 73.7019 145.026 73.3165 144.52L72.5212 145.126C72.9143 145.642 73.3165 146.149 73.7277 146.649L74.4995 146.013ZM71.1243 141.407C70.7794 140.875 70.4439 140.337 70.1181 139.79L69.2593 140.303C69.5916 140.86 69.9337 141.409 70.2855 141.951L71.1243 141.407ZM68.2929 136.449C68.0107 135.882 67.7384 135.308 67.4765 134.728L66.5651 135.139C66.8322 135.731 67.1099 136.316 67.3978 136.894L68.2929 136.449ZM66.0414 131.199C65.8254 130.604 65.6199 130.004 65.4251 129.398L64.473 129.704C64.6717 130.322 64.8812 130.934 65.1015 131.54L66.0414 131.199ZM64.3969 125.732C64.3226 125.423 64.2509 125.113 64.182 124.801L63.2056 125.017C63.2759 125.335 63.3489 125.651 63.4247 125.966L64.3969 125.732ZM64.182 124.801C64.1122 124.486 64.0463 124.17 63.9843 123.855L63.0031 124.048C63.0666 124.371 63.1341 124.694 63.2056 125.017L64.182 124.801ZM63.4204 120.042C63.3564 119.4 63.308 118.759 63.275 118.12L62.2764 118.172C62.3102 118.827 62.3597 119.483 62.4253 120.141L63.4204 120.042ZM63.261 114.266C63.2896 113.623 63.3336 112.981 63.3927 112.343L62.397 112.251C62.3364 112.905 62.2913 113.562 62.262 114.222L63.261 114.266ZM63.9319 108.527C64.0524 107.895 64.1878 107.266 64.3378 106.643L63.3656 106.409C63.2118 107.048 63.073 107.692 62.9495 108.34L63.9319 108.527ZM65.4169 102.942C65.6262 102.334 65.8498 101.731 66.0872 101.134L65.1581 100.764C64.9148 101.376 64.6858 101.993 64.4713 102.617L65.4169 102.942ZM67.6806 97.6239C67.9738 97.0516 68.2803 96.4865 68.5999 95.929L67.7324 95.4316C67.4049 96.0027 67.0909 96.5817 66.7906 97.168L67.6806 97.6239ZM70.673 92.6786C71.0437 92.1537 71.4269 91.6374 71.8222 91.1303L71.0335 90.5155C70.6285 91.0351 70.236 91.5639 69.8562 92.1017L70.673 92.6786ZM74.3333 88.2052C74.7742 87.7383 75.2264 87.2815 75.6898 86.8352L74.9961 86.1149C74.5213 86.5722 74.0579 87.0403 73.6062 87.5187L74.3333 88.2052ZM78.5902 84.2963C79.0925 83.8972 79.6051 83.5094 80.1278 83.1335L79.5438 82.3217C79.0082 82.7069 78.4829 83.1043 77.9681 83.5133L78.5902 84.2963ZM83.3608 81.0354C83.9144 80.7127 84.4772 80.4024 85.0489 80.1051L84.5874 79.2179C84.0015 79.5227 83.4247 79.8407 82.8572 80.1714L83.3608 81.0354ZM88.5492 78.4927C89.1427 78.2531 89.7441 78.0267 90.3532 77.814L90.0235 76.8699C89.3994 77.0879 88.783 77.3199 88.1748 77.5654L88.5492 78.4927ZM94.0482 76.7176C94.3604 76.6408 94.6743 76.5675 94.9899 76.4977L94.774 75.5212C94.4507 75.5927 94.1292 75.6679 93.8093 75.7465L94.0482 76.7176ZM94.9899 76.4977C95.3354 76.4213 95.6814 76.3507 96.0281 76.2858L95.8442 75.3029C95.4868 75.3697 95.1301 75.4425 94.774 75.5212L94.9899 76.4977ZM100.232 75.781C100.939 75.7428 101.645 75.7278 102.35 75.7359L102.361 74.736C101.634 74.7276 100.906 74.7431 100.178 74.7825L100.232 75.781ZM106.572 76.0612C107.271 76.1614 107.967 76.2844 108.658 76.4301L108.864 75.4516C108.152 75.3014 107.434 75.1746 106.714 75.0713L106.572 76.0612ZM112.735 77.5726C113.4 77.8068 114.059 78.0632 114.709 78.3413L115.102 77.4219C114.432 77.1351 113.753 76.8709 113.067 76.6294L112.735 77.5726ZM118.485 80.2574C118.788 80.4372 119.089 80.6223 119.387 80.8125L119.925 79.9694C119.618 79.7733 119.307 79.5826 118.995 79.3972L118.485 80.2574ZM119.387 80.8125C119.686 81.0027 119.98 81.1975 120.271 81.3968L120.836 80.5717C120.536 80.3663 120.233 80.1655 119.925 79.9694L119.387 80.8125ZM123.601 84.0126C124.127 84.4851 124.637 84.9739 125.13 85.4782L125.845 84.7793C125.337 84.2594 124.812 83.7554 124.269 83.2683L123.601 84.0126ZM127.886 88.6935C128.309 89.2588 128.714 89.8377 129.1 90.4294L129.937 89.8833C129.54 89.2734 129.122 88.6766 128.686 88.0939L127.886 88.6935ZM131.175 94.1203C131.48 94.7563 131.764 95.4031 132.027 96.0597L132.955 95.6876C132.684 95.0107 132.391 94.3439 132.077 93.6883L131.175 94.1203ZM133.342 100.085C133.43 100.426 133.511 100.77 133.588 101.115L134.564 100.899C134.486 100.543 134.401 100.189 134.311 99.8368L133.342 100.085ZM133.588 101.115C133.657 101.431 133.721 101.748 133.778 102.064L134.762 101.886C134.703 101.557 134.637 101.229 134.564 100.9L133.588 101.115ZM134.186 105.907C134.205 106.555 134.201 107.2 134.173 107.84L135.172 107.884C135.201 107.219 135.206 106.549 135.185 105.876L134.186 105.907ZM133.712 111.676C133.587 112.31 133.438 112.938 133.266 113.557L134.23 113.824C134.408 113.18 134.563 112.528 134.693 111.87L133.712 111.676ZM131.961 117.194C131.699 117.784 131.414 118.363 131.109 118.93L131.99 119.404C132.307 118.815 132.602 118.213 132.875 117.601L131.961 117.194ZM129.031 122.189C128.645 122.705 128.24 123.207 127.816 123.693L128.571 124.35C129.011 123.844 129.431 123.323 129.832 122.787L129.031 122.189ZM125.069 126.41C124.579 126.827 124.073 127.227 123.551 127.607L124.14 128.415C124.682 128.02 125.208 127.605 125.717 127.172L125.069 126.41ZM120.267 129.643C119.698 129.939 119.115 130.215 118.52 130.47L118.913 131.389C119.532 131.124 120.137 130.837 120.728 130.53L120.267 129.643ZM114.864 131.721C114.553 131.802 114.239 131.878 113.922 131.949L114.139 132.925C114.468 132.852 114.793 132.773 115.116 132.689L114.864 131.721ZM113.925 131.948C113.619 132.014 113.314 132.074 113.008 132.126L113.177 133.111C113.497 133.057 113.817 132.995 114.137 132.925L113.925 131.948ZM109.293 132.421C108.668 132.415 108.047 132.38 107.431 132.317L107.33 133.312C107.976 133.378 108.627 133.414 109.282 133.421L109.293 132.421ZM103.772 131.61C103.173 131.437 102.584 131.237 102.005 131.012L101.642 131.944C102.249 132.18 102.867 132.389 103.494 132.57L103.772 131.61ZM98.6654 129.356C98.1357 129.031 97.6202 128.683 97.1205 128.311L96.5235 129.113C97.0472 129.503 97.5876 129.868 98.1427 130.209L98.6654 129.356ZM94.3428 125.826C93.9201 125.374 93.5163 124.9 93.1329 124.407L92.3433 125.02C92.7453 125.538 93.1687 126.034 93.6117 126.509L94.3428 125.826ZM91.1198 121.27C90.9765 120.995 90.8387 120.716 90.7067 120.433L89.8004 120.856C89.9387 121.152 90.083 121.445 90.2331 121.732L91.1198 121.27ZM90.7068 120.433C90.7114 120.443 90.7152 120.454 90.718 120.464L89.7519 120.722C89.7641 120.768 89.7802 120.812 89.8004 120.856L90.7068 120.433ZM90.7065 120.593C90.7018 120.603 90.6963 120.613 90.6899 120.622L89.8727 120.046C89.8452 120.085 89.8214 120.126 89.8015 120.168L90.7065 120.593ZM90.6899 120.622C90.6835 120.631 90.6764 120.639 90.6686 120.647L89.9643 119.937C89.9309 119.97 89.9003 120.007 89.8727 120.046L90.6899 120.622ZM90.5507 120.701C90.5397 120.702 90.5287 120.702 90.5177 120.701L90.6116 119.706C90.564 119.701 90.5166 119.701 90.4698 119.705L90.5507 120.701ZM90.5177 120.701C90.5067 120.7 90.4958 120.698 90.4852 120.695L90.751 119.731C90.7057 119.719 90.6591 119.71 90.6116 119.706L90.5177 120.701ZM90.3795 120.62C90.3733 120.611 90.3679 120.601 90.3633 120.591L91.2738 120.178C91.2541 120.134 91.2307 120.093 91.2041 120.054L90.3795 120.62ZM90.3654 120.596C90.4997 120.884 90.6398 121.168 90.7857 121.447L91.6723 120.985C91.5333 120.718 91.3998 120.448 91.2718 120.173L90.3654 120.596ZM92.8351 124.641C93.2255 125.143 93.6367 125.625 94.0671 126.086L94.7981 125.404C94.3882 124.965 93.9966 124.506 93.6247 124.027L92.8351 124.641ZM96.8952 128.616C97.4039 128.994 97.9287 129.35 98.4679 129.68L98.9906 128.828C98.4768 128.513 97.9768 128.174 97.4922 127.814L96.8952 128.616ZM101.867 131.366C102.456 131.595 103.057 131.798 103.666 131.974L103.943 131.013C103.363 130.845 102.791 130.652 102.229 130.434L101.867 131.366ZM107.391 132.694C108.019 132.758 108.651 132.793 109.287 132.8L109.298 131.8C108.692 131.794 108.089 131.76 107.492 131.699L107.391 132.694ZM113.07 132.499C113.381 132.446 113.692 132.385 114.002 132.318L113.79 131.341C113.494 131.405 113.198 131.462 112.902 131.513L113.07 132.499ZM114.005 132.317C114.326 132.246 114.644 132.169 114.96 132.087L114.707 131.119C114.403 131.199 114.097 131.273 113.788 131.341L114.005 132.317ZM118.668 130.817C119.273 130.559 119.864 130.278 120.441 129.978L119.98 129.091C119.425 129.38 118.856 129.649 118.275 129.898L118.668 130.817ZM123.774 127.912C124.304 127.526 124.818 127.121 125.315 126.698L124.667 125.936C124.189 126.343 123.695 126.733 123.185 127.104L123.774 127.912ZM128.102 123.941C128.532 123.447 128.943 122.938 129.334 122.415L128.533 121.816C128.157 122.32 127.761 122.809 127.348 123.284L128.102 123.941ZM131.442 119.11C131.752 118.534 132.04 117.947 132.307 117.349L131.393 116.942C131.137 117.517 130.859 118.082 130.562 118.636L131.442 119.11ZM133.631 113.659C133.805 113.03 133.956 112.393 134.083 111.75L133.101 111.556C132.979 112.175 132.834 112.788 132.667 113.392L133.631 113.659ZM134.55 107.857C134.579 107.207 134.584 106.553 134.563 105.895L133.564 105.926C133.583 106.558 133.579 107.187 133.551 107.813L134.55 107.857ZM134.151 101.997C134.092 101.676 134.028 101.355 133.957 101.034L132.98 101.249C133.049 101.558 133.111 101.867 133.167 102.176L134.151 101.997ZM133.957 101.034C133.879 100.683 133.797 100.335 133.708 99.989L132.739 100.236C132.825 100.571 132.905 100.909 132.981 101.249L133.957 101.034ZM132.382 95.9164C132.116 95.2493 131.829 94.5945 131.522 93.9528L130.62 94.3841C130.917 95.0061 131.195 95.6407 131.454 96.2874L132.382 95.9164ZM129.423 90.2178C129.032 89.6173 128.622 89.0317 128.194 88.4616L127.394 89.0617C127.809 89.6143 128.206 90.182 128.586 90.764L129.423 90.2178ZM125.404 85.2109C124.903 84.6997 124.386 84.2056 123.855 83.7294L123.187 84.4742C123.703 84.9359 124.204 85.4149 124.689 85.9105L125.404 85.2109ZM120.485 81.0847C119.895 80.6811 119.292 80.2968 118.678 79.9323L118.168 80.7925C118.764 81.1459 119.348 81.5185 119.92 81.9099L120.485 81.0847ZM114.859 77.9918C114.203 77.7106 113.537 77.4505 112.862 77.2121L112.529 78.155C113.183 78.3861 113.829 78.6383 114.465 78.9109L114.859 77.9918ZM108.738 76.0527C108.041 75.9052 107.337 75.7803 106.627 75.6785L106.485 76.6684C107.173 76.767 107.855 76.8881 108.531 77.0311L108.738 76.0527ZM102.356 75.3509C101.644 75.3434 100.93 75.3591 100.212 75.3987L100.267 76.3972C100.963 76.3588 101.656 76.3435 102.345 76.3508L102.356 75.3509ZM95.9602 75.9136C95.6097 75.9794 95.259 76.051 94.9082 76.1286L95.1242 77.105C95.4644 77.0298 95.8046 76.9603 96.1446 76.8965L95.9602 75.9136ZM94.9077 76.1287C94.5893 76.1995 94.2727 76.2738 93.9578 76.3516L94.1976 77.3224C94.505 77.2465 94.814 77.174 95.1247 77.1049L94.9077 76.1287ZM90.23 77.4607C89.6153 77.6757 89.0084 77.9044 88.4094 78.1464L88.7841 79.0736C89.3683 78.8375 89.9604 78.6144 90.5601 78.4047L90.23 77.4607ZM84.8764 79.7743C84.2992 80.0745 83.7311 80.3876 83.1721 80.7132L83.6755 81.5773C84.2207 81.2597 84.7749 80.9543 85.3378 80.6615L84.8764 79.7743ZM79.9081 82.8304C79.3805 83.2097 78.8629 83.6009 78.3558 84.0035L78.9776 84.7867C79.4723 84.394 79.9771 84.0123 80.4918 83.6423L79.9081 82.8304ZM75.4276 86.5651C74.9598 87.0154 74.5033 87.4763 74.0582 87.9473L74.7851 88.6341C75.2193 88.1745 75.6647 87.7248 76.1211 87.2855L75.4276 86.5651ZM71.5236 90.8986C71.1246 91.4102 70.7379 91.9311 70.3638 92.4608L71.1806 93.0377C71.5456 92.521 71.9229 92.0127 72.3122 91.5135L71.5236 90.8986ZM68.2719 95.7406C67.9494 96.3032 67.6402 96.8735 67.3445 97.451L68.2346 97.9068C68.5231 97.3433 68.8248 96.7869 69.1395 96.238L68.2719 95.7406ZM65.7373 100.994C65.4978 101.596 65.2724 102.204 65.0614 102.818L66.0071 103.143C66.213 102.544 66.4329 101.951 66.6665 101.363L65.7373 100.994ZM63.9735 106.554C63.8222 107.183 63.6857 107.817 63.5643 108.456L64.5467 108.643C64.6651 108.02 64.7983 107.401 64.9458 106.787L63.9735 106.554ZM63.021 112.308C62.9614 112.952 62.9171 113.6 62.8883 114.249L63.8873 114.294C63.9154 113.66 63.9587 113.029 64.0168 112.4L63.021 112.308ZM62.902 118.14C62.9352 118.785 62.9837 119.431 63.048 120.079L64.0431 119.981C63.9804 119.349 63.933 118.718 63.9007 118.088L62.902 118.14ZM63.6143 123.927C63.6765 124.246 63.7427 124.564 63.8127 124.883L64.7894 124.668C64.721 124.357 64.6564 124.046 64.5957 123.735L63.6143 123.927ZM63.8128 124.883C63.8873 125.22 63.9649 125.555 64.0456 125.888L65.0175 125.653C64.9383 125.326 64.8622 124.997 64.7893 124.667L63.8128 124.883ZM65.1712 129.84C65.3862 130.494 65.6136 131.141 65.8531 131.781L66.7898 131.431C66.5549 130.803 66.332 130.169 66.1212 129.527L65.1712 129.84ZM67.4488 135.571C67.7409 136.193 68.0448 136.808 68.3602 137.414L69.2473 136.953C68.9382 136.358 68.6402 135.756 68.3539 135.146L67.4488 135.571ZM70.4044 140.982C70.7698 141.564 71.1464 142.137 71.5337 142.701L72.3581 142.135C71.9785 141.582 71.6094 141.02 71.2512 140.45L70.4044 140.982ZM73.9956 145.994C74.4284 146.527 74.8714 147.05 75.3242 147.563L76.0742 146.902C75.6302 146.398 75.196 145.886 74.7717 145.363L73.9956 145.994ZM78.1657 150.535C78.6593 151.012 79.1621 151.478 79.6737 151.933L80.3387 151.186C79.8371 150.74 79.3441 150.283 78.8602 149.816L78.1657 150.535ZM82.8509 154.543C83.3977 154.956 83.9526 155.359 84.5152 155.75L85.0861 154.929C84.5344 154.545 83.9903 154.151 83.4542 153.745L82.8509 154.543ZM87.9816 157.961C88.5736 158.306 89.1726 158.639 89.7782 158.961L90.247 158.077C89.6532 157.762 89.0658 157.435 88.4853 157.097L87.9816 157.961ZM93.484 160.741C94.1128 161.013 94.7475 161.272 95.3875 161.519L95.7471 160.586C95.1195 160.344 94.4973 160.09 93.8807 159.823L93.484 160.741ZM99.2806 162.842C99.9371 163.036 100.598 163.218 101.264 163.385L101.508 162.416C100.856 162.251 100.208 162.074 99.5641 161.883L99.2806 162.842ZM105.288 164.229C105.963 164.342 106.641 164.442 107.323 164.528L107.448 163.536C106.78 163.452 106.115 163.354 105.453 163.243L105.288 164.229ZM111.42 164.877C112.103 164.907 112.788 164.924 113.475 164.927L113.479 163.927C112.805 163.924 112.134 163.908 111.464 163.878L111.42 164.877ZM117.584 164.775C118.266 164.722 118.949 164.656 119.633 164.575L119.515 163.582C118.845 163.661 118.175 163.726 117.507 163.778L117.584 164.775ZM123.69 163.929C124.027 163.862 124.363 163.791 124.7 163.716L124.484 162.74C124.154 162.813 123.824 162.882 123.494 162.949L123.69 163.929ZM124.699 163.716C125.034 163.643 125.368 163.566 125.702 163.487L125.471 162.514C125.143 162.592 124.814 162.667 124.484 162.74L124.699 163.716ZM129.666 162.41C130.322 162.209 130.973 161.997 131.621 161.776L131.297 160.83C130.66 161.048 130.018 161.256 129.373 161.454L129.666 162.41ZM135.463 160.32C136.096 160.057 136.724 159.783 137.347 159.5L136.933 158.59C136.32 158.868 135.702 159.137 135.079 159.397L135.463 160.32ZM141.031 157.68C141.635 157.356 142.234 157.024 142.827 156.681L142.327 155.815C141.743 156.152 141.154 156.48 140.559 156.798L141.031 157.68ZM146.317 154.514C146.887 154.134 147.451 153.744 148.008 153.346L147.427 152.533C146.878 152.925 146.323 153.307 145.762 153.682L146.317 154.514ZM151.273 150.852C151.803 150.419 152.327 149.977 152.843 149.527L152.186 148.773C151.678 149.216 151.162 149.651 150.64 150.077L151.273 150.852ZM155.852 146.728C156.338 146.246 156.816 145.756 157.287 145.258L156.56 144.571C156.097 145.061 155.626 145.544 155.147 146.019L155.852 146.728ZM160.011 142.182C160.448 141.655 160.877 141.121 161.297 140.58L160.507 139.966C160.093 140.499 159.671 141.025 159.241 141.543L160.011 142.182ZM163.711 137.254C164.095 136.688 164.47 136.115 164.836 135.535L163.991 135.001C163.63 135.572 163.261 136.136 162.883 136.693L163.711 137.254ZM166.917 131.993C167.081 131.692 167.243 131.39 167.402 131.086L166.516 130.622C166.36 130.921 166.201 131.218 166.039 131.514L166.917 131.993ZM167.402 131.086C167.397 131.095 167.391 131.105 167.385 131.113L166.592 130.503C166.564 130.541 166.538 130.58 166.516 130.623L167.402 131.086ZM167.275 131.183C167.264 131.185 167.254 131.186 167.242 131.187L167.202 130.188C167.154 130.19 167.107 130.196 167.062 130.206L167.275 131.183ZM167.242 131.187C167.231 131.187 167.22 131.187 167.21 131.185L167.343 130.194C167.297 130.188 167.25 130.186 167.202 130.188L167.242 131.187ZM167.095 131.125C167.088 131.117 167.081 131.108 167.075 131.099L167.921 130.566C167.896 130.525 167.867 130.488 167.835 130.453L167.095 131.125ZM167.075 131.099C167.069 131.09 167.064 131.08 167.06 131.07L167.986 130.692C167.968 130.648 167.946 130.606 167.921 130.566L167.075 131.099ZM167.055 130.94C167.058 130.93 167.063 130.919 167.068 130.91L167.952 131.377C167.974 131.335 167.992 131.292 168.007 131.247L167.055 130.94ZM167.067 130.911C166.909 131.213 166.748 131.514 166.585 131.813L167.463 132.291C167.629 131.988 167.792 131.682 167.953 131.376L167.067 130.911ZM164.516 135.334C164.152 135.91 163.779 136.48 163.398 137.043L164.226 137.604C164.613 137.032 164.992 136.454 165.362 135.868L164.516 135.334ZM160.998 140.348C160.58 140.887 160.154 141.417 159.72 141.941L160.489 142.579C160.931 142.048 161.363 141.508 161.788 140.962L160.998 140.348ZM157.012 144.999C156.544 145.494 156.068 145.981 155.585 146.46L156.29 147.17C156.78 146.683 157.264 146.188 157.739 145.685L157.012 144.999ZM152.595 149.242C152.081 149.69 151.561 150.129 151.034 150.559L151.666 151.334C152.202 150.896 152.73 150.45 153.252 149.996L152.595 149.242ZM147.788 153.039C147.234 153.435 146.674 153.821 146.107 154.199L146.662 155.031C147.238 154.648 147.807 154.255 148.369 153.853L147.788 153.039ZM142.638 156.354C142.048 156.694 141.453 157.025 140.852 157.346L141.324 158.228C141.934 157.902 142.539 157.566 143.138 157.22L142.638 156.354ZM137.191 159.156C136.572 159.437 135.947 159.709 135.318 159.971L135.702 160.894C136.342 160.628 136.976 160.352 137.605 160.066L137.191 159.156ZM131.498 161.418C130.855 161.638 130.208 161.848 129.556 162.048L129.849 163.004C130.511 162.801 131.169 162.588 131.822 162.364L131.498 161.418ZM125.615 163.119C125.283 163.198 124.951 163.274 124.618 163.347L124.834 164.324C125.172 164.249 125.509 164.172 125.846 164.092L125.615 163.119ZM124.618 163.347C124.318 163.414 124.018 163.477 123.718 163.538L123.917 164.518C124.223 164.456 124.529 164.391 124.834 164.324L124.618 163.347ZM120.088 164.138C119.479 164.216 118.869 164.283 118.259 164.339L118.349 165.335C118.972 165.278 119.594 165.209 120.215 165.13L120.088 164.138ZM114.585 164.54C114.278 164.546 113.971 164.549 113.665 164.549L113.665 165.549C113.978 165.549 114.29 165.546 114.603 165.54L114.585 164.54ZM174.172 94.5438C174.187 94.5438 174.203 94.5457 174.218 94.5494L173.976 95.5198C174.039 95.5355 174.105 95.5438 174.172 95.5438V94.5438ZM174.35 94.6681C174.355 94.6826 174.359 94.6975 174.36 94.7126L173.366 94.8192C173.373 94.8857 173.388 94.95 173.411 95.0111L174.35 94.6681ZM174.36 94.7124C174.318 94.3176 174.272 93.9233 174.222 93.5295L173.23 93.6548C173.279 94.0425 173.324 94.4307 173.366 94.8194L174.36 94.7124ZM173.452 88.8292C173.373 88.4401 173.291 88.0517 173.206 87.664L172.229 87.8799C172.314 88.2616 172.394 88.644 172.472 89.0271L173.452 88.8292ZM173.206 87.664C173.132 87.3333 173.057 87.0034 172.98 86.6744L172.006 86.9027C172.083 87.2276 172.157 87.5533 172.229 87.8799L173.206 87.664ZM171.956 82.7575C171.768 82.1089 171.573 81.4639 171.37 80.8228L170.417 81.1247C170.617 81.7578 170.81 82.3946 170.995 83.0351L171.956 82.7575ZM170.049 76.9945C169.812 76.3613 169.568 75.7322 169.316 75.1072L168.389 75.4813C168.637 76.0983 168.879 76.7195 169.113 77.3447L170.049 76.9945ZM167.707 71.3937C167.422 70.7804 167.13 70.1715 166.831 69.5673L165.935 70.0113C166.23 70.6079 166.519 71.209 166.8 71.8146L167.707 71.3937ZM164.941 65.9873C164.611 65.3982 164.273 64.8139 163.929 64.2345L163.069 64.7458C163.41 65.3178 163.743 65.8947 164.069 66.4764L164.941 65.9873ZM161.771 60.809C161.397 60.2471 161.016 59.6905 160.628 59.1392L159.81 59.7144C160.193 60.2588 160.569 60.8085 160.939 61.3633L161.771 60.809ZM158.216 55.8876C157.801 55.3558 157.378 54.8296 156.95 54.309L156.178 54.9447C156.601 55.4587 157.018 55.9784 157.429 56.5035L158.216 55.8876ZM154.298 51.2502C153.843 50.7514 153.382 50.2585 152.915 49.7717L152.194 50.464C152.655 50.9447 153.11 51.4314 153.559 51.924L154.298 51.2502ZM150.041 46.9222C149.549 46.4593 149.052 46.0027 148.55 45.5525L147.883 46.2972C148.379 46.7419 148.87 47.1928 149.355 47.6499L150.041 46.9222ZM145.468 42.928C144.944 42.5036 144.414 42.0858 143.879 41.6747L143.27 42.4677C143.798 42.8736 144.321 43.2862 144.839 43.7054L145.468 42.928ZM140.608 39.2902C140.053 38.9066 139.493 38.5299 138.928 38.1603L138.381 38.997C138.938 39.362 139.491 39.734 140.039 40.1128L140.608 39.2902ZM135.486 36.0297C134.904 35.6892 134.317 35.3559 133.726 35.0301L133.243 35.9058C133.827 36.2276 134.407 36.5567 134.982 36.893L135.486 36.0297ZM130.133 33.1662C129.526 32.8709 128.916 32.5833 128.302 32.3032L127.887 33.2131C128.493 33.4896 129.096 33.7737 129.695 34.0652L130.133 33.1662ZM124.576 30.7178C123.95 30.4698 123.319 30.2295 122.686 29.9971L122.341 30.936C122.967 31.1654 123.59 31.4027 124.208 31.6476L124.576 30.7178ZM118.85 28.701C118.206 28.5016 117.559 28.3102 116.909 28.1269L116.638 29.0895C117.28 29.2704 117.919 29.4593 118.554 29.6562L118.85 28.701ZM112.986 27.1291C112.328 26.9796 111.668 26.8384 111.005 26.7056L110.809 27.6861C111.463 27.8173 112.115 27.9567 112.764 28.1042L112.986 27.1291ZM107.017 26.0128C106.351 25.9145 105.682 25.8247 105.011 25.7433L104.89 26.7361C105.553 26.8164 106.213 26.9051 106.872 27.0021L107.017 26.0128ZM100.979 25.3595C100.308 25.313 99.6352 25.275 98.9606 25.2455L98.917 26.2446C99.583 26.2736 100.247 26.3112 100.91 26.3571L100.979 25.3595ZM94.9126 25.1726C94.5746 25.1751 94.2363 25.1799 93.8977 25.1867L93.918 26.1865C94.2524 26.1797 94.5865 26.1751 94.9201 26.1726L94.9126 25.1726ZM93.8979 25.1867C93.9141 25.1864 93.9305 25.1882 93.9466 25.1922L93.7076 26.1632C93.7754 26.1799 93.8459 26.188 93.9177 26.1865L93.8979 25.1867ZM94.0831 25.3233C94.0877 25.3393 94.0902 25.3556 94.0905 25.3717L93.0907 25.3921C93.0922 25.4639 93.1031 25.534 93.1225 25.6011L94.0831 25.3233ZM94.0905 25.3721C94.0909 25.3882 94.089 25.4046 94.0851 25.4207L93.1141 25.1816C93.0974 25.2494 93.0893 25.3199 93.0907 25.3917L94.0905 25.3721ZM93.9539 25.5572C93.938 25.5618 93.9216 25.5643 93.9055 25.5646L93.8853 24.5648C93.8135 24.5663 93.7433 24.5771 93.6763 24.5965L93.9539 25.5572ZM93.9047 25.5646C94.2419 25.5584 94.5788 25.5542 94.9153 25.5522L94.9093 24.5522C94.5686 24.5543 94.2275 24.5585 93.8861 24.5648L93.9047 25.5646ZM98.9449 25.6296C99.6164 25.6595 100.286 25.6978 100.954 25.7444L101.023 24.7468C100.347 24.6996 99.6692 24.6608 98.9893 24.6306L98.9449 25.6296ZM104.967 26.1273C105.635 26.2082 106.301 26.2975 106.965 26.3951L107.11 25.4057C106.438 25.3069 105.764 25.2165 105.087 25.1345L104.967 26.1273ZM110.934 27.0825C111.594 27.2143 112.252 27.3542 112.906 27.5024L113.127 26.527C112.464 26.377 111.798 26.2353 111.13 26.1019L110.934 27.0825ZM116.812 28.4915C117.46 28.6732 118.104 28.8629 118.745 29.0606L119.04 28.1049C118.391 27.9048 117.738 27.7127 117.082 27.5287L116.812 28.4915ZM122.565 30.3456C123.196 30.5761 123.824 30.8144 124.448 31.0604L124.814 30.1301C124.183 29.881 123.547 29.6397 122.908 29.4063L122.565 30.3456ZM128.158 32.6335C128.77 32.9114 129.378 33.197 129.982 33.49L130.419 32.5904C129.807 32.2936 129.192 32.0045 128.572 31.723L128.158 32.6335ZM133.562 35.3409C134.151 35.6647 134.735 35.9958 135.315 36.3341L135.819 35.4702C135.232 35.1277 134.64 34.7924 134.043 34.4646L133.562 35.3409ZM138.744 38.4517C139.306 38.8192 139.864 39.1937 140.417 39.5751L140.985 38.752C140.425 38.3658 139.86 37.9866 139.291 37.6145L138.744 38.4517ZM143.675 41.9469C144.208 42.3559 144.735 42.7716 145.258 43.1939L145.886 42.4163C145.358 41.9886 144.823 41.5677 144.284 41.1536L143.675 41.9469ZM148.326 45.8061C148.827 46.2542 149.321 46.7088 149.81 47.1697L150.496 46.442C150.001 45.9753 149.5 45.515 148.994 45.0612L148.326 45.8061ZM152.672 50.0071C153.136 50.4919 153.595 50.9828 154.048 51.4796L154.787 50.8061C154.329 50.303 153.864 49.806 153.394 49.3151L152.672 50.0071ZM156.685 54.5264C157.111 55.0448 157.531 55.569 157.945 56.0988L158.733 55.4836C158.315 54.9471 157.889 54.4163 157.458 53.8913L156.685 54.5264ZM160.343 59.3381C160.728 59.8872 161.107 60.4417 161.479 61.0015L162.312 60.4482C161.935 59.8813 161.552 59.3198 161.162 58.7637L160.343 59.3381ZM163.622 64.414C163.964 64.991 164.3 65.573 164.628 66.1599L165.501 65.6719C165.168 65.0776 164.829 64.4882 164.482 63.9038L163.622 64.414ZM166.504 69.7258C166.801 70.3276 167.091 70.9341 167.374 71.545L168.282 71.1252C167.995 70.5065 167.702 69.8924 167.401 69.2829L166.504 69.7258ZM168.972 75.2433C169.222 75.8655 169.464 76.4921 169.7 77.1227L170.637 76.7734C170.399 76.1348 170.153 75.5003 169.899 74.8702L168.972 75.2433ZM171.011 80.9347C171.213 81.5729 171.407 82.215 171.593 82.8608L172.554 82.5838C172.365 81.9298 172.169 81.2797 171.965 80.6334L171.011 80.9347ZM172.612 86.7604C172.689 87.088 172.763 87.4164 172.836 87.7458L173.813 87.5297C173.739 87.1963 173.663 86.8638 173.585 86.5321L172.612 86.7604ZM172.836 87.7457C172.922 88.1311 173.003 88.5173 173.081 88.9042L174.062 88.7063C173.982 88.3134 173.899 87.9212 173.813 87.5298L172.836 87.7457ZM173.847 93.5772C173.897 93.9687 173.942 94.3607 173.985 94.7532L174.979 94.6462C174.936 94.2476 174.889 93.8495 174.839 93.4519L173.847 93.5772ZM173.985 94.753C173.984 94.7447 173.983 94.7365 173.984 94.7282L174.983 94.7524C174.984 94.7172 174.983 94.6818 174.979 94.6465L173.985 94.753ZM174.011 94.6343C174.016 94.6273 174.02 94.6205 174.025 94.6141L174.804 95.2419C174.826 95.2142 174.847 95.1852 174.865 95.1552L174.011 94.6343ZM174.025 94.6141C174.031 94.6077 174.036 94.6016 174.042 94.5959L174.732 95.3199C174.757 95.2956 174.782 95.2696 174.804 95.2419L174.025 94.6141ZM174.128 94.549C174.136 94.5471 174.144 94.5457 174.153 94.5448L174.259 95.5391C174.294 95.5353 174.329 95.5292 174.363 95.521L174.128 94.549ZM174.125 94.5485C174.132 94.5474 174.138 94.5465 174.144 94.5459L174.257 95.5395C174.266 95.5385 174.276 95.5371 174.286 95.5354L174.125 94.5485ZM174.176 94.5438C174.175 94.5438 174.174 94.5438 174.172 94.5438V95.5438C174.174 95.5438 174.177 95.5438 174.18 95.5438L174.176 94.5438ZM2.6715 145.543C2.6857 145.543 2.69995 145.544 2.71389 145.548L2.49009 146.522C2.54889 146.536 2.60969 146.543 2.6715 146.543V145.543ZM2.8427 145.651C2.84877 145.664 2.85339 145.677 2.85643 145.691L1.87997 145.907C1.89327 145.967 1.9132 146.025 1.93898 146.079L2.8427 145.651ZM2.85632 145.691C2.78447 145.367 2.71428 145.043 2.64576 144.719L1.6674 144.926C1.7366 145.253 1.80749 145.58 1.88007 145.907L2.85632 145.691ZM1.90211 140.819C1.79112 140.166 1.68682 139.514 1.58915 138.86L0.600149 139.008C0.6988 139.668 0.80416 140.328 0.91626 140.987L1.90211 140.819ZM1.08063 134.922C1.00898 134.264 0.944016 133.605 0.885708 132.947L-0.110394 133.035C-0.0514963 133.7 0.0141242 134.365 0.0864989 135.031L1.08063 134.922ZM0.614943 128.987C0.583007 128.325 0.557752 127.664 0.539144 127.003L-0.46046 127.031C-0.441664 127.699 -0.416153 128.367 -0.383895 129.035L0.614943 128.987ZM0.507121 123.033C0.515066 122.371 0.529654 121.71 0.550853 121.049L-0.448632 121.017C-0.470046 121.684 -0.484782 122.352 -0.492807 123.021L0.507121 123.033ZM0.7577 117.084C0.805439 116.424 0.859772 115.765 0.920668 115.106L-0.0750813 115.014C-0.136592 115.679 -0.191475 116.345 -0.239696 117.012L0.7577 117.084ZM1.36551 111.161C1.45284 110.505 1.54671 109.85 1.64708 109.197L0.658662 109.045C0.557278 109.705 0.462465 110.367 0.374255 111.029L1.36551 111.161ZM2.32807 105.286C2.45465 104.636 2.5877 103.988 2.72719 103.341L1.74967 103.13C1.60878 103.783 1.47438 104.438 1.34652 105.094L2.32807 105.286ZM3.64169 99.4779C3.807 98.8371 3.97871 98.198 4.15676 97.5608L3.19366 97.2917C3.0138 97.9353 2.84037 98.5808 2.67339 99.2281L3.64169 99.4779ZM5.30138 93.7596C5.5048 93.1299 5.71451 92.5023 5.93048 91.8769L4.98525 91.5505C4.7671 92.1822 4.55528 92.8161 4.34981 93.4521L5.30138 93.7596ZM7.30103 88.1512C7.54183 87.5349 7.78882 86.921 8.04198 86.3095L7.11802 85.927C6.86232 86.5446 6.61284 87.1647 6.36961 87.7872L7.30103 88.1512ZM9.63352 82.6728C9.91084 82.0721 10.1942 81.4741 10.4837 80.8788L9.58435 80.4415C9.29198 81.0428 9.00573 81.6469 8.72562 82.2536L9.63352 82.6728ZM12.2907 77.3441C12.6035 76.7614 12.9222 76.1816 13.2468 75.6048L12.3754 75.1143C12.0475 75.6969 11.7255 76.2826 11.4096 76.8711L12.2907 77.3441ZM15.2631 72.1848C15.6102 71.6221 15.9631 71.0626 16.3219 70.5063L15.4815 69.9643C15.1191 70.5262 14.7626 71.0914 14.412 71.6598L15.2631 72.1848ZM18.5399 67.2139C18.9203 66.673 19.3064 66.1356 19.6981 65.6017L18.8918 65.0102C18.4961 65.5495 18.1062 66.0923 17.722 66.6387L18.5399 67.2139ZM22.11 62.449C22.5223 61.9318 22.9402 61.4183 23.3637 60.9086L22.5945 60.2696C22.1668 60.7845 21.7446 61.3032 21.3281 61.8256L22.11 62.449ZM25.9606 57.9071C26.403 57.416 26.8508 56.9288 27.304 56.4456L26.5746 55.7616C26.1168 56.2496 25.6645 56.7417 25.2176 57.2377L25.9606 57.9071ZM30.0778 53.6044C30.5484 53.1413 31.0243 52.6823 31.5053 52.2275L30.8183 51.5008C30.3324 51.9602 29.8518 52.4239 29.3764 52.8917L30.0778 53.6044ZM34.4441 49.5581C34.6937 49.3404 34.9445 49.1237 35.1966 48.9081L34.5467 48.1481C34.2921 48.3658 34.0387 48.5847 33.7867 48.8046L34.4441 49.5581ZM35.1994 48.9057C35.191 48.913 35.1821 48.9195 35.1726 48.9251L34.6588 48.0672C34.6185 48.0914 34.58 48.1192 34.5439 48.1505L35.1994 48.9057ZM35.0451 48.9495C35.0342 48.9478 35.0235 48.945 35.0131 48.9414L35.3433 47.9975C35.2982 47.9817 35.2522 47.9701 35.2058 47.9625L35.0451 48.9495ZM35.0131 48.9414C35.0026 48.9377 34.9926 48.9332 34.983 48.9278L35.4726 48.0559C35.4316 48.0328 35.3884 48.0133 35.3433 47.9975L35.0131 48.9414ZM34.8985 48.8292C34.8946 48.8189 34.8916 48.8083 34.8896 48.7974L35.8729 48.6154C35.8642 48.5684 35.8515 48.5227 35.835 48.4787L34.8985 48.8292ZM34.8896 48.7974C34.8876 48.7865 34.8866 48.7755 34.8865 48.7645L35.8865 48.7566C35.8861 48.7096 35.8816 48.6623 35.8729 48.6154L34.8896 48.7974ZM34.9301 48.6422C34.9371 48.6338 34.9449 48.6259 34.9534 48.6187L35.5996 49.3819C35.636 49.351 35.6694 49.3173 35.6994 49.2811L34.9301 48.6422ZM34.9515 48.6203C34.6985 48.8367 34.4467 49.0542 34.1962 49.2727L34.8537 50.0262C35.1016 49.8098 35.3509 49.5945 35.6014 49.3803L34.9515 48.6203ZM31.2463 51.9522C30.7634 52.4087 30.2857 52.8695 29.8133 53.3344L30.5147 54.0472C30.9824 53.5869 31.4552 53.1308 31.9333 52.6789L31.2463 51.9522ZM27.0288 56.1865C26.5739 56.6715 26.1244 57.1606 25.6803 57.6535L26.4233 58.3229C26.8629 57.8348 27.3079 57.3507 27.7582 56.8706L27.0288 56.1865ZM23.0734 60.6666C22.6483 61.1783 22.2288 61.6937 21.8149 62.2129L22.5968 62.8363C23.0065 62.3224 23.4218 61.8121 23.8426 61.3056L23.0734 60.6666ZM19.3937 65.3777C19.0005 65.9137 18.6129 66.4532 18.2311 66.9961L19.0491 67.5714C19.4271 67.0339 19.8107 66.4998 20.2 65.9693L19.3937 65.3777ZM16.0045 70.3012C15.6444 70.8596 15.2901 71.4212 14.9416 71.9861L15.7927 72.5111C16.1377 71.9519 16.4884 71.3959 16.8449 70.8432L16.0045 70.3012ZM12.9177 75.4192C12.5918 75.9982 12.2718 76.5802 11.9579 77.1651L12.839 77.6381C13.1498 77.059 13.4665 76.4829 13.7891 75.9097L12.9177 75.4192ZM10.1439 80.7134C9.85336 81.311 9.56888 81.9113 9.29051 82.5142L10.1984 82.9334C10.474 82.3365 10.7556 81.7422 11.0432 81.1507L10.1439 80.7134ZM7.69287 86.1648C7.43876 86.7786 7.19082 87.3949 6.9491 88.0135L7.88052 88.3774C8.11981 87.765 8.36526 87.155 8.61682 86.5473L7.69287 86.1648ZM5.57332 91.7534C5.35652 92.3812 5.14601 93.0112 4.94181 93.6433L5.89338 93.9507C6.09553 93.325 6.30393 92.7013 6.51855 92.0798L5.57332 91.7534ZM3.79282 97.459C3.61408 98.0986 3.44172 98.7402 3.27578 99.3834L4.24407 99.6332C4.40836 98.9964 4.57899 98.3613 4.75593 97.7281L3.79282 97.459ZM2.35779 103.261C2.21776 103.91 2.0842 104.561 1.95713 105.213L2.93867 105.404C3.06447 104.759 3.19669 104.115 3.3353 103.472L2.35779 103.261ZM1.27353 109.139C1.17277 109.795 1.07854 110.453 0.990879 111.111L1.98214 111.243C2.06892 110.591 2.1622 109.941 2.26194 109.291L1.27353 109.139ZM0.544321 115.072C0.483191 115.732 0.428647 116.394 0.380724 117.057L1.37812 117.129C1.42556 116.473 1.47955 115.818 1.54007 115.164L0.544321 115.072ZM0.173074 121.037C0.151792 121.7 0.137146 122.364 0.129169 123.029L1.1291 123.041C1.13699 122.383 1.15149 121.726 1.17256 121.069L0.173074 121.037ZM0.161307 127.014C0.179984 127.677 0.205335 128.341 0.237392 129.006L1.23623 128.958C1.2045 128.3 1.1794 127.642 1.16091 126.985L0.161307 127.014ZM0.509187 132.981C0.567718 133.642 0.632929 134.303 0.704853 134.964L1.69899 134.856C1.62779 134.201 1.56323 133.547 1.50529 132.893L0.509187 132.981ZM1.21531 138.917C1.31334 139.572 1.41805 140.228 1.52945 140.883L2.5153 140.715C2.40502 140.067 2.30136 139.418 2.20431 138.769L1.21531 138.917ZM2.27592 144.798C2.3447 145.123 2.41515 145.448 2.48728 145.773L3.46353 145.556C3.39213 145.235 3.32238 144.913 3.25429 144.591L2.27592 144.798ZM2.4873 145.773C2.48526 145.764 2.48391 145.755 2.48326 145.745L3.48086 145.676C3.47808 145.636 3.47232 145.596 3.46351 145.556L2.4873 145.773ZM2.50857 145.637C2.5133 145.629 2.51864 145.621 2.52455 145.614L3.30397 146.24C3.32941 146.208 3.35227 146.175 3.37247 146.14L2.50857 145.637ZM2.52455 145.614C2.53051 145.606 2.537 145.599 2.54395 145.593L3.22129 146.328C3.25082 146.301 3.27849 146.272 3.30397 146.24L2.52455 145.614ZM2.64391 145.545C2.65303 145.544 2.66226 145.543 2.6715 145.543V146.543C2.71189 146.543 2.752 146.54 2.7915 146.534L2.64391 145.545ZM113.665 165.049V166.049H113.665L113.665 165.049ZM63.6938 124.909L64.6702 124.693V124.693L63.6938 124.909ZM94.882 76.0095L95.0979 76.9859L94.882 76.0095ZM119.656 80.3909L119.119 81.2341L119.656 80.3909ZM134.076 101.007L135.053 100.792L135.052 100.791L134.076 101.007ZM114.031 132.437L114.243 133.414L114.248 133.413L114.031 132.437ZM90.2536 120.644L89.3472 121.067L89.3472 121.067L90.2536 120.644ZM90.2813 120.334L91.0985 120.91L90.2813 120.334ZM90.5646 120.203L90.4707 121.199L90.5646 120.203ZM90.8186 120.384L89.908 120.798L89.9122 120.807L90.8186 120.384ZM113.896 131.829L114.108 132.807L114.113 132.806L113.896 131.829ZM133.469 101.141L134.445 100.927L134.445 100.926L133.469 101.141ZM95.0162 76.6168L94.8003 75.6404L94.7992 75.6407L95.0162 76.6168ZM64.301 124.775L63.3244 124.99L63.3246 124.991L64.301 124.775ZM124.592 163.228L124.376 162.252L124.376 162.252L124.592 163.228ZM166.959 130.854L167.845 131.318L167.846 131.317L166.959 130.854ZM167.222 130.687L167.263 131.687L167.222 130.687ZM167.498 130.832L166.652 131.365V131.365L167.498 130.832ZM167.51 131.144L166.626 130.676L166.624 130.679L167.51 131.144ZM124.726 163.836L124.511 162.859L124.51 162.859L124.726 163.836ZM173.863 94.7659L174.858 94.6592L174.858 94.6589L173.863 94.7659ZM172.717 87.772L173.694 87.5561L173.694 87.556L172.717 87.772ZM93.9078 25.6866L93.9276 26.6865L93.9282 26.6864L93.9078 25.6866ZM93.5906 25.3819L92.5908 25.4015L92.5908 25.4023L93.5906 25.3819ZM93.8954 25.0647L93.8768 24.0649L93.8752 24.0649L93.8954 25.0647ZM173.325 87.6377L174.301 87.4218L174.301 87.4217L173.325 87.6377ZM174.482 94.6997L175.476 94.5932L175.476 94.5927L174.482 94.6997ZM174.415 94.928L175.193 95.5558L174.415 94.928ZM174.206 95.0419L174.099 94.0476L174.072 94.0506L174.044 94.055L174.206 95.0419ZM2.3682 145.799L3.34466 145.583L3.34445 145.582L2.3682 145.799ZM34.8717 48.5281L35.5216 49.2882L35.5271 49.2834L34.8717 48.5281ZM35.1782 48.4694L34.848 49.4134L35.1782 48.4694ZM35.3813 48.7064L34.398 48.8884V48.8884L35.3813 48.7064ZM35.2765 49.0003L34.6302 48.2372L34.6266 48.2403L35.2765 49.0003ZM2.97541 145.665L1.99916 145.881L1.9992 145.882L2.97541 145.665ZM2.91426 145.927L3.69367 146.553L3.69368 146.553L2.91426 145.927ZM113.665 164.049C113.35 164.049 113.035 164.046 112.72 164.04L112.683 166.04C113.009 166.046 113.337 166.049 113.665 166.049V164.049ZM108.957 163.826C108.33 163.766 107.706 163.695 107.084 163.612L106.82 165.594C107.466 165.68 108.116 165.755 108.768 165.817L108.957 163.826ZM103.368 162.972C102.752 162.842 102.14 162.7 101.531 162.547L101.044 164.487C101.677 164.646 102.314 164.793 102.955 164.929L103.368 162.972ZM97.9108 161.492C97.3138 161.293 96.7211 161.083 96.1329 160.863L95.4307 162.736C96.0423 162.965 96.6586 163.183 97.2793 163.389L97.9108 161.492ZM92.6539 159.408C92.0831 159.144 91.5175 158.869 90.9574 158.584L90.0502 160.366C90.6324 160.663 91.2204 160.948 91.8137 161.223L92.6539 159.408ZM87.6623 156.749C87.1248 156.423 86.5933 156.087 86.0683 155.741L84.9679 157.411C85.5137 157.77 86.0661 158.12 86.6249 158.459L87.6623 156.749ZM82.9984 153.55C82.5007 153.166 82.0101 152.773 81.5268 152.37L80.247 153.907C80.7494 154.326 81.2595 154.734 81.7767 155.133L82.9984 153.55ZM78.721 149.85C78.2697 149.414 77.8261 148.968 77.3908 148.514L75.9469 149.898C76.3996 150.37 76.8607 150.833 77.33 151.287L78.721 149.85ZM74.8855 145.695C74.4863 145.21 74.0958 144.718 73.7142 144.217L72.1236 145.429C72.5204 145.95 72.9266 146.463 73.3417 146.967L74.8855 145.695ZM71.5438 141.135C71.2022 140.609 70.8701 140.075 70.5476 139.534L68.8299 140.559C69.1654 141.121 69.5109 141.676 69.8661 142.224L71.5438 141.135ZM68.7405 136.226C68.4611 135.664 68.1915 135.097 67.9322 134.522L66.1094 135.345C66.3791 135.943 66.6595 136.533 66.9502 137.117L68.7405 136.226ZM66.5113 131.028C66.2975 130.44 66.094 129.845 65.9011 129.245L63.997 129.857C64.1975 130.481 64.4091 131.099 64.6315 131.711L66.5113 131.028ZM64.883 125.615C64.8094 125.309 64.7385 125.002 64.6702 124.693L62.7174 125.125C62.7883 125.446 62.8621 125.765 62.9386 126.083L64.883 125.615ZM64.6702 124.693C64.6013 124.382 64.5362 124.07 64.4749 123.758L62.5125 124.144C62.5768 124.471 62.6451 124.798 62.7174 125.125L64.6702 124.693ZM63.9179 119.992C63.8547 119.358 63.807 118.725 63.7744 118.094L61.777 118.197C61.8113 118.86 61.8614 119.525 61.9278 120.191L63.9179 119.992ZM63.7605 114.288C63.7888 113.653 63.8322 113.02 63.8906 112.389L61.8991 112.205C61.8378 112.867 61.7921 113.532 61.7625 114.2L63.7605 114.288ZM64.423 108.621C64.542 107.996 64.6758 107.376 64.824 106.759L62.8794 106.292C62.7238 106.939 62.5833 107.59 62.4584 108.246L64.423 108.621ZM65.8897 103.105C66.0965 102.504 66.3172 101.908 66.5518 101.319L64.6935 100.58C64.4473 101.198 64.2155 101.823 63.9985 102.454L65.8897 103.105ZM68.1256 97.8518C68.4152 97.2866 68.718 96.7284 69.0337 96.1777L67.2986 95.1829C66.9673 95.7609 66.6495 96.3467 66.3456 96.94L68.1256 97.8518ZM71.0814 92.967C71.4476 92.4485 71.8261 91.9386 72.2166 91.4377L70.6392 90.2081C70.2293 90.7339 69.8321 91.2691 69.4478 91.8132L71.0814 92.967ZM74.6968 88.5485C75.1323 88.0873 75.579 87.6361 76.0367 87.1953L74.6492 85.7548C74.1687 86.2176 73.6998 86.6913 73.2427 87.1754L74.6968 88.5485ZM78.9012 84.6877C79.3973 84.2936 79.9036 83.9106 80.4197 83.5394L79.2519 81.9158C78.7098 82.3057 78.1781 82.7079 77.6571 83.1218L78.9012 84.6877ZM83.6125 81.4674C84.1593 81.1487 84.7151 80.8423 85.2796 80.5486L84.3567 78.7743C83.7636 79.0828 83.1798 79.4047 82.6055 79.7394L83.6125 81.4674ZM88.7364 78.9563C89.3225 78.7197 89.9165 78.4961 90.518 78.2861L89.8587 76.3979C89.227 76.6185 88.6032 76.8532 87.9876 77.1018L88.7364 78.9563ZM94.1676 77.2031C94.476 77.1272 94.7861 77.0548 95.0979 76.9859L94.666 75.033C94.3389 75.1054 94.0135 75.1814 93.6899 75.261L94.1676 77.2031ZM95.0979 76.9859C95.438 76.9106 95.7788 76.8411 96.12 76.7773L95.7522 74.8114C95.3895 74.8792 95.0274 74.9531 94.666 75.033L95.0979 76.9859ZM100.259 76.2803C100.955 76.2427 101.65 76.2279 102.344 76.2359L102.367 74.236C101.629 74.2276 100.89 74.2432 100.151 74.2832L100.259 76.2803ZM106.501 76.5561C107.189 76.6548 107.874 76.7759 108.555 76.9194L108.967 74.9624C108.244 74.8099 107.516 74.6812 106.785 74.5764L106.501 76.5561ZM112.569 78.0442C113.224 78.2748 113.872 78.5272 114.512 78.801L115.299 76.9621C114.618 76.6711 113.929 76.4029 113.233 76.1578L112.569 78.0442ZM118.23 80.6876C118.529 80.8646 118.825 81.0468 119.119 81.2341L120.194 79.5478C119.882 79.3488 119.567 79.1552 119.25 78.9671L118.23 80.6876ZM119.119 81.2341C119.412 81.4214 119.702 81.6132 119.989 81.8093L121.119 80.1591C120.814 79.9507 120.506 79.7469 120.194 79.5478L119.119 81.2341ZM123.267 84.3847C123.785 84.8499 124.287 85.3312 124.773 85.8277L126.203 84.4298C125.687 83.9021 125.154 83.3906 124.603 82.8962L123.267 84.3847ZM127.485 88.9934C127.902 89.5499 128.301 90.1199 128.681 90.7024L130.356 89.6103C129.953 88.9912 129.529 88.3855 129.086 87.7941L127.485 88.9934ZM130.724 94.3364C131.024 94.9625 131.304 95.5993 131.563 96.2457L133.419 95.5015C133.144 94.8145 132.847 94.1377 132.528 93.4723L130.724 94.3364ZM132.858 100.208C132.944 100.545 133.024 100.883 133.1 101.223L135.052 100.791C134.973 100.43 134.887 100.07 134.795 99.713L132.858 100.208ZM133.099 101.222C133.168 101.533 133.23 101.843 133.286 102.154L135.254 101.796C135.193 101.462 135.126 101.127 135.053 100.792L133.099 101.222ZM133.686 105.923C133.705 106.558 133.701 107.19 133.673 107.818L135.671 107.906C135.701 107.229 135.706 106.546 135.685 105.861L133.686 105.923ZM133.221 111.579C133.098 112.201 132.953 112.816 132.785 113.424L134.712 113.957C134.894 113.302 135.051 112.637 135.183 111.966L133.221 111.579ZM131.505 116.991C131.247 117.569 130.968 118.137 130.669 118.693L132.43 119.641C132.753 119.041 133.054 118.428 133.331 117.805L131.505 116.991ZM128.631 121.889C128.252 122.395 127.855 122.888 127.439 123.365L128.948 124.678C129.396 124.163 129.824 123.633 130.232 123.087L128.631 121.889ZM124.745 126.03C124.265 126.438 123.768 126.83 123.256 127.203L124.435 128.819C124.987 128.416 125.523 127.994 126.041 127.553L124.745 126.03ZM120.036 129.199C119.478 129.489 118.907 129.76 118.323 130.01L119.11 131.849C119.74 131.579 120.357 131.287 120.959 130.974L120.036 129.199ZM114.737 131.237C114.432 131.317 114.124 131.392 113.814 131.461L114.248 133.413C114.582 133.339 114.914 133.258 115.243 133.172L114.737 131.237ZM113.818 131.459C113.52 131.524 113.222 131.582 112.924 131.633L113.261 133.604C113.588 133.548 113.916 133.485 114.243 133.414L113.818 131.459ZM109.298 131.921C108.689 131.915 108.082 131.881 107.481 131.82L107.279 133.81C107.94 133.877 108.607 133.914 109.277 133.921L109.298 131.921ZM103.91 131.129C103.326 130.961 102.751 130.766 102.186 130.546L101.461 132.41C102.082 132.652 102.714 132.865 103.356 133.051L103.91 131.129ZM98.9268 128.93C98.4098 128.613 97.9066 128.273 97.419 127.91L96.225 129.514C96.7607 129.913 97.3135 130.287 97.8814 130.635L98.9268 128.93ZM94.7083 125.485C94.2959 125.043 93.9018 124.581 93.5277 124.1L91.9485 125.327C92.3597 125.856 92.7929 126.364 93.2462 126.85L94.7083 125.485ZM91.5631 121.039C91.4232 120.771 91.2888 120.498 91.1599 120.222L89.3472 121.067C89.4886 121.37 89.6362 121.669 89.7898 121.964L91.5631 121.039ZM91.16 120.222C91.1771 120.259 91.1908 120.296 91.2011 120.335L89.2689 120.851C89.2885 120.925 89.3146 120.997 89.3472 121.067L91.16 120.222ZM91.159 120.806C91.142 120.842 91.1218 120.877 91.0985 120.91L89.4642 119.757C89.4197 119.82 89.3813 119.887 89.349 119.955L91.159 120.806ZM91.0985 120.91C91.0752 120.943 91.0491 120.974 91.0207 121.002L89.6121 119.582C89.5582 119.636 89.5086 119.694 89.4642 119.757L91.0985 120.91ZM90.5911 121.2C90.5513 121.203 90.511 121.203 90.4707 121.199L90.6585 119.208C90.5817 119.201 90.5051 119.2 90.4294 119.206L90.5911 121.2ZM90.4707 121.199C90.4305 121.195 90.3909 121.188 90.3523 121.177L90.8839 119.249C90.8107 119.229 90.7353 119.215 90.6585 119.208L90.4707 121.199ZM89.9673 120.903C89.9446 120.87 89.9248 120.835 89.9081 120.798L91.7291 119.971C91.6972 119.901 91.6594 119.834 91.6164 119.771L89.9673 120.903ZM89.9122 120.807C90.0496 121.102 90.1931 121.392 90.3423 121.678L92.1156 120.754C91.9801 120.494 91.8498 120.23 91.7249 119.962L89.9122 120.807ZM92.4403 124.948C92.84 125.462 93.261 125.956 93.7016 126.428L95.1637 125.063C94.764 124.635 94.3821 124.187 94.0195 123.72L92.4403 124.948ZM96.5967 129.017C97.1174 129.405 97.6546 129.768 98.2065 130.106L99.2519 128.401C98.7509 128.094 98.2633 127.764 97.7907 127.413L96.5967 129.017ZM101.686 131.832C102.289 132.066 102.904 132.274 103.527 132.454L104.082 130.533C103.516 130.369 102.958 130.181 102.41 129.968L101.686 131.832ZM107.341 133.192C107.983 133.257 108.631 133.293 109.282 133.3L109.303 131.3C108.713 131.294 108.125 131.261 107.542 131.202L107.341 133.192ZM113.154 132.992C113.472 132.937 113.791 132.876 114.108 132.807L113.684 130.852C113.395 130.915 113.106 130.971 112.817 131.02L113.154 132.992ZM114.113 132.806C114.44 132.733 114.764 132.654 115.086 132.57L114.58 130.635C114.283 130.713 113.982 130.786 113.679 130.853L114.113 132.806ZM118.865 131.277C119.481 131.013 120.084 130.728 120.672 130.422L119.749 128.647C119.205 128.93 118.648 129.194 118.078 129.438L118.865 131.277ZM124.069 128.316C124.609 127.923 125.132 127.51 125.639 127.079L124.342 125.556C123.874 125.954 123.39 126.336 122.89 126.701L124.069 128.316ZM128.479 124.269C128.917 123.766 129.336 123.248 129.735 122.714L128.133 121.517C127.764 122.01 127.376 122.491 126.971 122.956L128.479 124.269ZM131.883 119.347C132.198 118.76 132.492 118.162 132.763 117.552L130.936 116.738C130.685 117.302 130.413 117.856 130.121 118.399L131.883 119.347ZM134.113 113.792C134.29 113.151 134.444 112.502 134.573 111.847L132.611 111.459C132.491 112.066 132.349 112.666 132.185 113.259L134.113 113.792ZM135.05 107.879C135.079 107.216 135.084 106.55 135.063 105.88L133.064 105.942C133.083 106.561 133.079 107.178 133.052 107.79L135.05 107.879ZM134.642 101.908C134.583 101.581 134.517 101.254 134.445 100.927L132.492 101.356C132.559 101.659 132.62 101.962 132.675 102.265L134.642 101.908ZM134.445 100.926C134.367 100.57 134.282 100.216 134.193 99.8654L132.255 100.36C132.339 100.69 132.418 101.022 132.492 101.357L134.445 100.926ZM132.846 95.7309C132.576 95.0535 132.284 94.3888 131.973 93.7371L130.168 94.5997C130.461 95.2119 130.735 95.8365 130.989 96.4729L132.846 95.7309ZM129.842 89.9447C129.445 89.335 129.028 88.7404 128.594 88.1615L126.994 89.3618C127.402 89.9057 127.793 90.4643 128.167 91.0371L129.842 89.9447ZM125.761 84.8611C125.253 84.342 124.728 83.8405 124.188 83.357L122.854 84.8466C123.361 85.3011 123.854 85.7726 124.332 86.2604L125.761 84.8611ZM120.767 80.6721C120.169 80.2624 119.557 79.8722 118.933 79.5022L117.913 81.2226C118.499 81.5704 119.075 81.9373 119.637 82.3225L120.767 80.6721ZM115.056 77.5322C114.39 77.2467 113.714 76.9827 113.029 76.7407L112.362 78.6265C113.006 78.8539 113.642 79.1021 114.268 79.3704L115.056 77.5322ZM108.841 75.5635C108.133 75.4138 107.419 75.2869 106.698 75.1836L106.414 77.1633C107.091 77.2604 107.762 77.3796 108.428 77.5202L108.841 75.5635ZM102.361 74.8509C101.639 74.8433 100.913 74.8593 100.185 74.8995L100.295 76.8965C100.979 76.8587 101.661 76.8436 102.34 76.8508L102.361 74.8509ZM95.868 75.4222C95.5122 75.489 95.1562 75.5617 94.8003 75.6404L95.2321 77.5932C95.5672 77.5191 95.9021 77.4507 96.2368 77.3879L95.868 75.4222ZM94.7992 75.6407C94.477 75.7123 94.1566 75.7875 93.8379 75.8662L94.3175 77.8078C94.6211 77.7329 94.9263 77.6612 95.2332 77.593L94.7992 75.6407ZM90.065 76.9888C89.4427 77.2064 88.8284 77.4379 88.2221 77.6828L88.9714 79.5372C89.5483 79.3041 90.133 79.0838 90.7252 78.8766L90.065 76.9888ZM84.6456 79.3308C84.0614 79.6346 83.4862 79.9516 82.9205 80.2812L83.9272 82.0093C84.4655 81.6958 85.0127 81.3942 85.5685 81.1051L84.6456 79.3308ZM79.6163 82.4244C79.0821 82.8084 78.5582 83.2044 78.0449 83.6119L79.2885 85.1783C79.7769 84.7905 80.2754 84.4137 80.7837 84.0483L79.6163 82.4244ZM75.0809 86.2048C74.6074 86.6606 74.1452 87.1272 73.6948 87.604L75.1486 88.9774C75.5773 88.5236 76.0172 88.0796 76.4679 87.6458L75.0809 86.2048ZM71.1293 90.5911C70.7255 91.109 70.3341 91.6362 69.9554 92.1723L71.589 93.3262C71.9495 92.8159 72.3221 92.3139 72.7065 91.8209L71.1293 90.5911ZM67.8381 95.492C67.5117 96.0614 67.1987 96.6386 66.8994 97.2232L68.6796 98.1347C68.9646 97.5782 69.2625 97.0287 69.5733 96.4866L67.8381 95.492ZM65.2727 100.809C65.0303 101.419 64.8021 102.034 64.5885 102.656L66.4799 103.306C66.6833 102.714 66.9004 102.128 67.1311 101.548L65.2727 100.809ZM63.4873 106.437C63.3342 107.074 63.196 107.716 63.0731 108.362L65.0379 108.736C65.1548 108.121 65.2863 107.51 65.432 106.904L63.4873 106.437ZM62.5231 112.262C62.4628 112.914 62.418 113.569 62.3888 114.227L64.3868 114.316C64.4146 113.69 64.4573 113.067 64.5146 112.446L62.5231 112.262ZM62.4027 118.165C62.4362 118.818 62.4854 119.473 62.5505 120.129L64.5407 119.931C64.4788 119.307 64.432 118.684 64.4001 118.063L62.4027 118.165ZM63.1236 124.023C63.1866 124.345 63.2535 124.668 63.3244 124.99L65.2777 124.56C65.2102 124.253 65.1464 123.946 65.0864 123.639L63.1236 124.023ZM63.3246 124.991C63.3998 125.331 63.4781 125.669 63.5597 126.006L65.5035 125.535C65.4251 125.211 65.3497 124.886 65.2775 124.559L63.3246 124.991ZM64.6962 129.996C64.9133 130.656 65.143 131.31 65.3848 131.957L67.2581 131.256C67.0256 130.634 66.8048 130.006 66.5962 129.371L64.6962 129.996ZM66.9962 135.784C67.2912 136.412 67.5981 137.032 67.9166 137.645L69.6909 136.722C69.3848 136.133 69.0899 135.537 68.8065 134.934L66.9962 135.784ZM69.981 141.248C70.35 141.835 70.7303 142.414 71.1214 142.984L72.7704 141.852C72.3946 141.305 72.0292 140.748 71.6745 140.184L69.981 141.248ZM73.6076 146.309C74.0446 146.847 74.4919 147.375 74.9492 147.894L76.4492 146.571C76.0097 146.073 75.5797 145.565 75.1597 145.048L73.6076 146.309ZM77.8185 150.895C78.3169 151.376 78.8246 151.847 79.3411 152.307L80.6712 150.813C80.1746 150.371 79.6865 149.918 79.2074 149.456L77.8185 150.895ZM82.5493 154.941C83.1014 155.359 83.6616 155.765 84.2297 156.16L85.3716 154.518C84.8254 154.139 84.2867 153.748 83.7558 153.346L82.5493 154.941ZM87.7298 158.393C88.3275 158.741 88.9323 159.078 89.5438 159.402L90.4814 157.636C89.8934 157.324 89.3119 157 88.7371 156.665L87.7298 158.393ZM93.2856 161.2C93.9206 161.475 94.5614 161.737 95.2077 161.986L95.9269 160.119C95.3056 159.88 94.6895 159.628 94.079 159.364L93.2856 161.2ZM99.1389 163.322C99.8018 163.518 100.469 163.701 101.141 163.87L101.63 161.931C100.985 161.768 100.343 161.592 99.7058 161.404L99.1389 163.322ZM105.205 164.722C105.887 164.837 106.572 164.937 107.26 165.024L107.511 163.04C106.849 162.956 106.191 162.86 105.536 162.75L105.205 164.722ZM111.398 165.377C112.087 165.407 112.779 165.424 113.473 165.427L113.481 163.427C112.814 163.424 112.149 163.408 111.486 163.379L111.398 165.377ZM117.623 165.274C118.311 165.22 119.001 165.153 119.691 165.071L119.457 163.085C118.793 163.164 118.13 163.228 117.469 163.28L117.623 165.274ZM123.789 164.419C124.128 164.351 124.468 164.28 124.808 164.205L124.376 162.252C124.049 162.324 123.722 162.393 123.396 162.458L123.789 164.419ZM124.807 164.205C125.145 164.13 125.481 164.053 125.817 163.974L125.355 162.028C125.03 162.105 124.704 162.18 124.376 162.252L124.807 164.205ZM129.813 162.888C130.474 162.685 131.13 162.472 131.783 162.249L131.135 160.357C130.503 160.573 129.867 160.779 129.226 160.976L129.813 162.888ZM135.655 160.782C136.293 160.516 136.926 160.241 137.554 159.955L136.726 158.134C136.118 158.411 135.505 158.678 134.887 158.935L135.655 160.782ZM141.266 158.121C141.876 157.795 142.479 157.459 143.076 157.114L142.077 155.382C141.498 155.716 140.913 156.041 140.323 156.357L141.266 158.121ZM146.594 154.93C147.169 154.547 147.737 154.154 148.299 153.753L147.136 152.126C146.592 152.515 146.042 152.894 145.485 153.266L146.594 154.93ZM151.589 151.239C152.124 150.803 152.651 150.357 153.172 149.904L151.858 148.396C151.353 148.836 150.842 149.267 150.324 149.69L151.589 151.239ZM156.204 147.083C156.694 146.597 157.176 146.103 157.65 145.601L156.197 144.228C155.737 144.714 155.27 145.193 154.795 145.664L156.204 147.083ZM160.396 142.501C160.836 141.97 161.268 141.432 161.692 140.886L160.112 139.66C159.702 140.188 159.283 140.71 158.856 141.224L160.396 142.501ZM164.125 137.535C164.512 136.964 164.89 136.387 165.259 135.802L163.568 134.734C163.211 135.3 162.844 135.86 162.469 136.413L164.125 137.535ZM167.356 132.232C167.522 131.929 167.684 131.625 167.845 131.318L166.073 130.39C165.918 130.686 165.76 130.982 165.6 131.275L167.356 132.232ZM167.846 131.317C167.827 131.353 167.805 131.387 167.781 131.418L166.196 130.198C166.15 130.258 166.108 130.323 166.073 130.391L167.846 131.317ZM167.382 131.671C167.343 131.68 167.303 131.685 167.263 131.687L167.182 129.688C167.105 129.691 167.029 129.701 166.955 129.717L167.382 131.671ZM167.263 131.687C167.222 131.688 167.182 131.686 167.143 131.681L167.41 129.699C167.335 129.689 167.259 129.685 167.182 129.688L167.263 131.687ZM166.725 131.461C166.698 131.432 166.673 131.4 166.652 131.365L168.344 130.299C168.303 130.234 168.256 130.173 168.206 130.117L166.725 131.461ZM166.652 131.365C166.63 131.331 166.612 131.296 166.597 131.259L168.449 130.503C168.42 130.432 168.385 130.364 168.344 130.299L166.652 131.365ZM166.579 130.787C166.591 130.749 166.607 130.712 166.626 130.676L168.394 131.611C168.43 131.543 168.459 131.472 168.483 131.4L166.579 130.787ZM166.624 130.679C166.467 130.979 166.308 131.277 166.146 131.573L167.902 132.53C168.069 132.224 168.233 131.917 168.395 131.608L166.624 130.679ZM164.094 135.067C163.732 135.639 163.363 136.204 162.984 136.762L164.64 137.885C165.03 137.308 165.412 136.725 165.785 136.135L164.094 135.067ZM160.603 140.042C160.189 140.576 159.766 141.102 159.335 141.622L160.874 142.899C161.319 142.363 161.755 141.819 162.183 141.268L160.603 140.042ZM156.649 144.655C156.184 145.146 155.713 145.63 155.233 146.105L156.642 147.525C157.136 147.035 157.623 146.536 158.102 146.029L156.649 144.655ZM152.266 148.865C151.757 149.309 151.241 149.745 150.717 150.172L151.982 151.721C152.522 151.28 153.055 150.831 153.58 150.373L152.266 148.865ZM147.498 152.632C146.948 153.025 146.392 153.408 145.83 153.783L146.939 155.447C147.519 155.061 148.093 154.665 148.66 154.26L147.498 152.632ZM142.388 155.921C141.803 156.259 141.212 156.587 140.616 156.906L141.56 158.669C142.175 158.34 142.784 158.001 143.387 157.653L142.388 155.921ZM136.984 158.701C136.37 158.98 135.75 159.25 135.126 159.509L135.895 161.356C136.539 161.088 137.178 160.81 137.812 160.521L136.984 158.701ZM131.337 160.945C130.698 161.163 130.056 161.372 129.409 161.57L129.995 163.482C130.663 163.278 131.326 163.063 131.984 162.837L131.337 160.945ZM125.499 162.633C125.171 162.711 124.841 162.786 124.511 162.859L124.941 164.812C125.282 164.737 125.622 164.659 125.961 164.579L125.499 162.633ZM124.51 162.859C124.213 162.925 123.916 162.988 123.618 163.048L124.016 165.008C124.325 164.946 124.634 164.88 124.943 164.812L124.51 162.859ZM120.024 163.642C119.422 163.719 118.818 163.785 118.213 163.841L118.395 165.832C119.024 165.775 119.652 165.706 120.278 165.626L120.024 163.642ZM114.575 164.04C114.272 164.046 113.968 164.049 113.664 164.049L113.665 166.049C113.981 166.049 114.297 166.046 114.612 166.04L114.575 164.04ZM174.172 94.0438C174.229 94.0438 174.285 94.0507 174.339 94.0643L173.855 96.0049C173.958 96.0304 174.064 96.0438 174.172 96.0438V94.0438ZM174.82 94.4966C174.839 94.5488 174.852 94.6035 174.858 94.6592L172.869 94.8726C172.881 94.9797 172.905 95.0837 172.941 95.1826L174.82 94.4966ZM174.858 94.6589C174.815 94.2611 174.768 93.8637 174.718 93.4668L172.734 93.7174C172.783 94.1021 172.828 94.4873 172.869 94.8729L174.858 94.6589ZM173.942 88.7303C173.863 88.3382 173.78 87.9468 173.694 87.5561L171.741 87.9879C171.825 88.3666 171.905 88.746 171.982 89.1261L173.942 88.7303ZM173.694 87.556C173.62 87.2232 173.544 86.8913 173.467 86.5602L171.52 87.0169C171.595 87.3397 171.669 87.6634 171.741 87.9879L173.694 87.556ZM172.436 82.6188C172.248 81.966 172.051 81.317 171.847 80.6718L169.94 81.2756C170.139 81.9047 170.331 82.5374 170.515 83.1738L172.436 82.6188ZM170.518 76.8194C170.279 76.1822 170.033 75.5491 169.78 74.9202L167.925 75.6683C168.172 76.2814 168.412 76.8986 168.644 77.5198L170.518 76.8194ZM168.16 71.1832C167.874 70.566 167.58 69.9533 167.279 69.3453L165.487 70.2333C165.78 70.8261 166.067 71.4234 166.346 72.0251L168.16 71.1832ZM165.377 65.7427C165.045 65.1499 164.705 64.5619 164.358 63.9789L162.64 65.0014C162.978 65.5698 163.309 66.143 163.633 66.721L165.377 65.7427ZM162.187 60.5319C161.811 59.9665 161.428 59.4063 161.037 58.8516L159.401 60.002C159.782 60.543 160.156 61.0891 160.523 61.6404L162.187 60.5319ZM158.61 55.5796C158.192 55.0445 157.767 54.515 157.336 53.9912L155.792 55.2626C156.212 55.7733 156.627 56.2897 157.035 56.8115L158.61 55.5796ZM154.668 50.9133C154.21 50.4113 153.746 49.9154 153.276 49.4255L151.833 50.8101C152.291 51.2878 152.744 51.7715 153.19 52.261L154.668 50.9133ZM150.383 46.5583C149.889 46.0925 149.389 45.6331 148.884 45.1801L147.549 46.6696C148.042 47.1114 148.53 47.5595 149.012 48.0138L150.383 46.5583ZM145.783 42.5393C145.255 42.1122 144.722 41.6918 144.183 41.2782L142.965 42.8642C143.49 43.2676 144.01 43.6776 144.525 44.0941L145.783 42.5393ZM140.892 38.8788C140.334 38.4929 139.77 38.1139 139.202 37.742L138.107 39.4154C138.661 39.7781 139.21 40.1477 139.755 40.5241L140.892 38.8788ZM135.739 35.5981C135.153 35.2554 134.562 34.9201 133.967 34.5922L133.002 36.3437C133.582 36.6635 134.158 36.9905 134.729 37.3246L135.739 35.5981ZM130.351 32.7166C129.741 32.4196 129.127 32.1301 128.509 31.8483L127.679 33.6681C128.282 33.9428 128.881 34.2251 129.476 34.5148L130.351 32.7166ZM124.76 30.2529C124.13 30.0033 123.496 29.7615 122.858 29.5277L122.169 31.4054C122.791 31.6334 123.409 31.8692 124.024 32.1126L124.76 30.2529ZM118.998 28.2234C118.35 28.0227 117.699 27.8301 117.045 27.6457L116.502 29.5707C117.14 29.7505 117.775 29.9382 118.407 30.1339L118.998 28.2234ZM113.097 26.6415C112.435 26.4911 111.77 26.349 111.103 26.2154L110.71 28.1764C111.361 28.3067 112.008 28.4452 112.654 28.5918L113.097 26.6415ZM107.09 25.5181C106.419 25.4192 105.746 25.3288 105.071 25.2469L104.83 27.2324C105.488 27.3122 106.145 27.4004 106.799 27.4967L107.09 25.5181ZM101.014 24.8607C100.338 24.8139 99.6612 24.7756 98.9824 24.746L98.8952 26.7441C99.557 26.773 100.217 26.8103 100.875 26.8559L101.014 24.8607ZM94.9088 24.6726C94.5687 24.6752 94.2283 24.6799 93.8875 24.6869L93.9282 26.6864C94.2604 26.6797 94.5924 26.6751 94.9239 26.6726L94.9088 24.6726ZM93.888 24.6868C93.9481 24.6857 94.0081 24.6924 94.0661 24.7067L93.5881 26.6487C93.6978 26.6757 93.8118 26.6887 93.9276 26.6865L93.888 24.6868ZM94.5634 25.1845C94.58 25.2419 94.5892 25.3015 94.5904 25.3615L92.5908 25.4023C92.5932 25.518 92.6108 25.6314 92.6421 25.7399L94.5634 25.1845ZM94.5904 25.3623C94.5916 25.4223 94.5849 25.4822 94.5706 25.5403L92.6286 25.0621C92.6016 25.1718 92.5886 25.2858 92.5908 25.4015L94.5904 25.3623ZM94.0928 26.0375C94.0353 26.0541 93.9757 26.0633 93.9156 26.0645L93.8752 24.0649C93.7594 24.0673 93.646 24.0848 93.5374 24.1162L94.0928 26.0375ZM93.914 26.0645C94.2491 26.0583 94.5839 26.0542 94.9182 26.0522L94.9063 24.0522C94.5635 24.0543 94.2204 24.0585 93.8768 24.0649L93.914 26.0645ZM98.9227 26.1291C99.59 26.1588 100.255 26.1968 100.919 26.2432L101.058 24.248C100.378 24.2005 99.6957 24.1615 99.0116 24.1311L98.9227 26.1291ZM104.907 26.6236C105.571 26.7041 106.232 26.7928 106.892 26.8898L107.183 24.911C106.507 24.8116 105.828 24.7206 105.147 24.6381L104.907 26.6236ZM110.836 27.5729C111.492 27.7038 112.145 27.8429 112.796 27.99L113.237 26.0394C112.57 25.8884 111.9 25.7458 111.228 25.6115L110.836 27.5729ZM116.677 28.9729C117.321 29.1534 117.961 29.342 118.598 29.5384L119.187 27.6271C118.534 27.4257 117.877 27.2324 117.218 27.0473L116.677 28.9729ZM122.393 30.8153C123.02 31.0443 123.644 31.2811 124.264 31.5256L124.998 29.6649C124.362 29.4142 123.722 29.1714 123.079 28.9366L122.393 30.8153ZM127.952 33.0887C128.56 33.3649 129.164 33.6486 129.764 33.9398L130.637 32.1405C130.022 31.8419 129.402 31.551 128.779 31.2678L127.952 33.0887ZM133.321 35.7791C133.906 36.1008 134.487 36.4298 135.063 36.766L136.071 35.0383C135.48 34.6936 134.884 34.3563 134.284 34.0264L133.321 35.7791ZM138.47 38.8703C139.029 39.2354 139.584 39.6076 140.133 39.9866L141.269 38.3405C140.705 37.9518 140.137 37.5703 139.564 37.1959L138.47 38.8703ZM143.37 42.3436C143.9 42.75 144.424 43.1631 144.943 43.5827L146.201 42.0275C145.669 41.5972 145.131 41.1737 144.588 40.757L143.37 42.3436ZM147.993 46.1785C148.49 46.6238 148.981 47.0755 149.467 47.5335L150.839 46.0781C150.341 45.6086 149.837 45.1454 149.327 44.6888L147.993 46.1785ZM152.311 50.3531C152.772 50.8348 153.228 51.3226 153.678 51.8163L155.157 50.4694C154.695 49.9632 154.228 49.463 153.754 48.9691L152.311 50.3531ZM156.299 54.8439C156.723 55.3591 157.14 55.88 157.551 56.4064L159.127 55.1759C158.706 54.6361 158.278 54.102 157.844 53.5738L156.299 54.8439ZM159.934 59.6252C160.316 60.1709 160.693 60.7219 161.062 61.2781L162.728 60.1715C162.349 59.6011 161.963 59.0361 161.571 58.4765L159.934 59.6252ZM163.192 64.669C163.532 65.2424 163.865 65.8208 164.192 66.404L165.937 65.4279C165.603 64.8298 165.261 64.2368 164.912 63.6488L163.192 64.669ZM166.056 69.9473C166.351 70.5453 166.639 71.1478 166.92 71.7549L168.735 70.9152C168.447 70.2927 168.152 69.6747 167.849 69.0615L166.056 69.9473ZM168.508 75.4298C168.756 76.0481 168.997 76.6707 169.231 77.2974L171.105 76.5987C170.866 75.9561 170.618 75.3178 170.363 74.6837L168.508 75.4298ZM170.535 81.0853C170.735 81.7195 170.928 82.3576 171.113 82.9994L173.034 82.4452C172.845 81.7872 172.647 81.1331 172.442 80.4828L170.535 81.0853ZM172.125 86.8745C172.201 87.2001 172.276 87.5265 172.348 87.8538L174.301 87.4217C174.227 87.0863 174.15 86.7517 174.072 86.4179L172.125 86.8745ZM172.348 87.8536C172.433 88.2361 172.514 88.6193 172.591 89.0031L174.552 88.6073C174.472 88.2114 174.388 87.8163 174.301 87.4218L172.348 87.8536ZM173.351 93.6398C173.4 94.0283 173.446 94.4173 173.488 94.8067L175.476 94.5927C175.433 94.191 175.386 93.7899 175.335 93.3892L173.351 93.6398ZM173.487 94.8062C173.484 94.7762 173.483 94.7461 173.484 94.7162L175.483 94.7645C175.485 94.7076 175.482 94.6504 175.476 94.5932L173.487 94.8062ZM173.584 94.3739C173.6 94.3483 173.617 94.3237 173.636 94.3002L175.193 95.5558C175.229 95.511 175.262 95.4642 175.292 95.4156L173.584 94.3739ZM173.636 94.3002C173.655 94.2767 173.676 94.2545 173.697 94.2339L175.077 95.682C175.118 95.6427 175.157 95.6006 175.193 95.5558L173.636 94.3002ZM174.011 94.0631C174.04 94.056 174.069 94.0508 174.099 94.0476L174.312 96.0363C174.369 96.0302 174.426 96.0203 174.481 96.0069L174.011 94.0631ZM174.044 94.055C174.06 94.0525 174.074 94.0506 174.087 94.0491L174.313 96.0363C174.33 96.0344 174.348 96.032 174.367 96.0288L174.044 94.055ZM174.173 94.0438C174.174 94.0438 174.174 94.0438 174.172 94.0438V96.0438C174.174 96.0438 174.178 96.0438 174.182 96.0438L174.173 94.0438ZM2.6715 145.043C2.7237 145.043 2.77548 145.049 2.8258 145.06L2.37819 147.01C2.47335 147.031 2.57169 147.043 2.6715 147.043V145.043ZM3.29456 145.437C3.31656 145.484 3.33345 145.533 3.34466 145.583L1.39173 146.015C1.41321 146.112 1.44541 146.205 1.48712 146.293L3.29456 145.437ZM3.34445 145.582C3.27295 145.26 3.20312 144.938 3.13494 144.615L1.17821 145.029C1.24777 145.358 1.31901 145.687 1.39195 146.016L3.34445 145.582ZM2.39503 140.735C2.28461 140.086 2.18082 139.436 2.08365 138.787L0.105648 139.082C0.204791 139.745 0.310677 140.408 0.423336 141.071L2.39503 140.735ZM1.5777 134.868C1.50641 134.213 1.44177 133.558 1.38376 132.903L-0.608444 133.079C-0.549253 133.748 -0.483304 134.416 -0.410568 135.085L1.5777 134.868ZM1.11436 128.963C1.08259 128.305 1.05746 127.646 1.03895 126.989L-0.960262 127.045C-0.941372 127.716 -0.915734 128.388 -0.883314 129.06L1.11436 128.963ZM1.00708 123.039C1.01499 122.38 1.0295 121.722 1.0506 121.065L-0.948375 121.001C-0.969896 121.671 -0.984705 122.343 -0.992771 123.015L1.00708 123.039ZM1.2564 117.12C1.3039 116.463 1.35795 115.807 1.41854 115.152L-0.572956 114.968C-0.634774 115.637 -0.689931 116.306 -0.738394 116.976L1.2564 117.12ZM1.86114 111.227C1.94803 110.574 2.04142 109.923 2.14128 109.272L0.164454 108.969C0.0625637 109.632 -0.0327232 110.297 -0.121374 110.963L1.86114 111.227ZM2.81884 105.381C2.94478 104.735 3.07717 104.09 3.21595 103.446L1.26091 103.025C1.11931 103.681 0.984248 104.339 0.85575 104.999L2.81884 105.381ZM4.12583 99.6028C4.29032 98.9652 4.46116 98.3294 4.63832 97.6953L2.7121 97.1571C2.53135 97.804 2.35705 98.4527 2.18924 99.1032L4.12583 99.6028ZM5.77717 93.9133C5.97956 93.2868 6.18821 92.6624 6.4031 92.0401L4.51263 91.3873C4.2934 92.0222 4.08052 92.6593 3.87402 93.2984L5.77717 93.9133ZM7.76674 88.3331C8.00633 87.72 8.25208 87.1091 8.50395 86.5007L6.65605 85.7357C6.39907 86.3564 6.14834 86.9797 5.9039 87.6052L7.76674 88.3331ZM10.0875 82.8824C10.3634 82.2847 10.6454 81.6897 10.9333 81.0974L9.13468 80.2229C8.84086 80.8272 8.55318 81.4343 8.27166 82.044L10.0875 82.8824ZM12.7313 77.5805C13.0425 77.0008 13.3596 76.4239 13.6826 75.8501L11.9397 74.8691C11.6101 75.4546 11.2866 76.0432 10.9691 76.6347L12.7313 77.5805ZM15.6886 72.4473C16.034 71.8874 16.3851 71.3307 16.7421 70.7773L15.0613 69.6934C14.6971 70.258 14.3388 70.826 13.9864 71.3973L15.6886 72.4473ZM18.9489 67.5015C19.3274 66.9634 19.7115 66.4287 20.1012 65.8975L18.4887 64.7144C18.091 65.2564 17.6991 65.802 17.313 66.351L18.9489 67.5015ZM22.5009 62.7607C22.9112 62.2461 23.327 61.7352 23.7483 61.2281L22.2099 59.9501C21.78 60.4676 21.3558 60.9888 20.9371 61.5139L22.5009 62.7607ZM26.3321 58.2417C26.7723 57.7531 27.2178 57.2684 27.6687 56.7877L26.2099 55.4195C25.7499 55.91 25.2953 56.4045 24.8461 56.9031L26.3321 58.2417ZM30.4285 53.9608C30.8968 53.5 31.3702 53.0433 31.8488 52.5908L30.4748 51.1375C29.9865 51.5992 29.5034 52.0651 29.0257 52.5353L30.4285 53.9608ZM34.7728 49.9349C35.0211 49.7182 35.2707 49.5026 35.5215 49.2881L34.2218 47.7681C33.9659 47.9869 33.7113 48.2068 33.4579 48.4279L34.7728 49.9349ZM35.5271 49.2834C35.4965 49.3099 35.4638 49.3335 35.4295 49.3541L34.4019 47.6383C34.3367 47.6773 34.2745 47.7223 34.2162 47.7728L35.5271 49.2834ZM34.9648 49.443C34.9253 49.4366 34.8862 49.4267 34.848 49.4134L35.5084 47.5255C35.4355 47.5 35.3611 47.4812 35.2861 47.469L34.9648 49.443ZM34.848 49.4134C34.8098 49.4 34.773 49.3834 34.7382 49.3638L35.7174 47.6199C35.6511 47.5827 35.5812 47.551 35.5084 47.5255L34.848 49.4134ZM34.4302 49.0045C34.4162 48.967 34.4054 48.9282 34.398 48.8884L36.3646 48.5244C36.3505 48.4485 36.3299 48.3746 36.3033 48.3034L34.4302 49.0045ZM34.398 48.8884C34.3906 48.8486 34.3868 48.8085 34.3865 48.7685L36.3864 48.7526C36.3858 48.6766 36.3786 48.6003 36.3646 48.5244L34.398 48.8884ZM34.5455 48.3228C34.571 48.292 34.5994 48.2633 34.6302 48.2372L35.9227 49.7635C35.9816 49.7136 36.0355 49.659 36.084 49.6006L34.5455 48.3228ZM34.6266 48.2403C34.3723 48.4577 34.1192 48.6763 33.8675 48.896L35.1824 50.403C35.4291 50.1877 35.6771 49.9735 35.9263 49.7604L34.6266 48.2403ZM30.9027 51.5889C30.4175 52.0477 29.9374 52.5108 29.4626 52.978L30.8654 54.4036C31.3307 53.9457 31.8012 53.4918 32.2768 53.0422L30.9027 51.5889ZM26.6641 55.8445C26.2069 56.3319 25.7552 56.8234 25.3088 57.3189L26.7947 58.6575C27.2322 58.172 27.6749 57.6903 28.1229 57.2126L26.6641 55.8445ZM22.6888 60.3471C22.2616 60.8613 21.84 61.3794 21.4239 61.9012L22.9877 63.148C23.3954 62.6367 23.8086 62.129 24.2272 61.6251L22.6888 60.3471ZM18.9906 65.082C18.5954 65.6206 18.2059 66.1628 17.8221 66.7085L19.458 67.859C19.8341 67.3243 20.2158 66.7929 20.6031 66.2651L18.9906 65.082ZM15.5843 70.0302C15.2224 70.5914 14.8663 71.1559 14.5161 71.7236L16.2183 72.7736C16.5615 72.2173 16.9104 71.6641 17.2651 71.1141L15.5843 70.0302ZM12.4819 75.174C12.1544 75.7559 11.8329 76.3408 11.5173 76.9287L13.2795 77.8745C13.5887 77.2984 13.9039 76.7252 14.2248 76.1549L12.4819 75.174ZM9.69425 80.4947C9.40224 81.0953 9.11633 81.6986 8.83655 82.3046L10.6524 83.143C10.9265 82.5491 11.2067 81.9579 11.4929 81.3693L9.69425 80.4947ZM7.2309 85.9735C6.9755 86.5904 6.72632 87.2098 6.48339 87.8315L8.34623 88.5594C8.58431 87.9501 8.82851 87.3431 9.0788 86.7386L7.2309 85.9735ZM5.1007 91.5902C4.88282 92.2212 4.67125 92.8543 4.46603 93.4895L6.36917 94.1044C6.57029 93.4819 6.77763 92.8614 6.99116 92.243L5.1007 91.5902ZM3.31127 97.3244C3.13163 97.9673 2.95841 98.612 2.79163 99.2585L4.72822 99.7581C4.89167 99.1245 5.06144 98.4927 5.23748 97.8627L3.31127 97.3244ZM1.86903 103.156C1.7283 103.808 1.59406 104.462 1.46636 105.118L3.42945 105.5C3.5546 104.858 3.68615 104.217 3.82406 103.577L1.86903 103.156ZM0.77932 109.063C0.678056 109.723 0.583356 110.384 0.495251 111.045L2.47776 111.309C2.56411 110.661 2.65691 110.013 2.75615 109.367L0.77932 109.063ZM0.0464469 115.026C-0.0149914 115.69 -0.0698091 116.355 -0.117974 117.021L1.87682 117.165C1.92402 116.513 1.97774 115.861 2.03795 115.21L0.0464469 115.026ZM-0.326669 121.021C-0.348058 121.687 -0.362777 122.355 -0.370795 123.023L1.62906 123.047C1.63692 122.392 1.65134 121.738 1.6723 121.085L-0.326669 121.021ZM-0.338496 127.028C-0.319724 127.695 -0.294245 128.362 -0.262028 129.03L1.73565 128.934C1.70408 128.279 1.67911 127.625 1.66071 126.971L-0.338496 127.028ZM0.0111365 133.025C0.0699612 133.689 0.135501 134.354 0.207787 135.018L2.19605 134.802C2.12521 134.151 2.06099 133.499 2.00334 132.849L0.0111365 133.025ZM0.720807 138.991C0.819336 139.65 0.924567 140.308 1.03653 140.967L3.00822 140.632C2.8985 139.986 2.79537 139.341 2.69881 138.695L0.720807 138.991ZM1.78674 144.901C1.85586 145.228 1.92667 145.555 1.99916 145.881L3.95166 145.448C3.88061 145.128 3.81122 144.808 3.74347 144.487L1.78674 144.901ZM1.9992 145.882C1.99172 145.848 1.98682 145.814 1.98446 145.78L3.97966 145.641C3.97516 145.577 3.96585 145.512 3.95162 145.448L1.9992 145.882ZM2.07662 145.385C2.09381 145.355 2.11326 145.327 2.13485 145.3L3.69368 146.553C3.73479 146.502 3.77176 146.448 3.80442 146.392L2.07662 145.385ZM2.13485 145.3C2.15652 145.273 2.18009 145.248 2.20528 145.225L3.55996 146.696C3.60774 146.652 3.65247 146.605 3.69367 146.553L2.13485 145.3ZM2.57011 145.05C2.60355 145.045 2.63744 145.043 2.6715 145.043V147.043C2.73671 147.043 2.80148 147.038 2.8653 147.028L2.57011 145.05Z"
      fill="#919EAB" mask="url(#path-1-inside-1_321_39324)" />
  </g>
  <g filter="url(#filter0_iiii_321_39324)">
    <path
      d="M8.89117 88.2032C11.2956 88.2032 13.2447 86.2541 13.2447 83.8497C13.2447 81.4453 11.2956 79.4961 8.89117 79.4961C6.48676 79.4961 4.5376 81.4453 4.5376 83.8497C4.5376 86.2541 6.48676 88.2032 8.89117 88.2032Z"
      fill="#FF5630" />
  </g>
  <g filter="url(#filter1_iiii_321_39324)">
    <path
      d="M149.617 50.8556C152.021 50.8556 153.97 48.9064 153.97 46.502C153.97 44.0976 152.021 42.1484 149.617 42.1484C147.212 42.1484 145.263 44.0976 145.263 46.502C145.263 48.9064 147.212 50.8556 149.617 50.8556Z"
      fill="#FFAB00" />
  </g>
  <g filter="url(#filter2_iiii_321_39324)">
    <path
      d="M100.143 166.645C102.548 166.645 104.497 164.695 104.497 162.291C104.497 159.887 102.548 157.938 100.143 157.938C97.7387 157.938 95.7896 159.887 95.7896 162.291C95.7896 164.695 97.7387 166.645 100.143 166.645Z"
      fill="#00B8D9" />
  </g>
  <g filter="url(#filter3_di_321_39324)">
    <rect x="34.7368" y="12.6758" width="58.9474" height="50.5263" rx="8" fill="white" />
  </g>
  <g filter="url(#filter4_i_321_39324)">
    <rect x="42.1055" y="16.8867" width="12.6316" height="14.7368" rx="4" fill="#00AB55" />
  </g>
  <rect opacity="0.8" x="61.0527" y="21.0977" width="16.8421" height="3.15789" rx="1.57895" fill="#919EAB" />
  <rect opacity="0.8" x="61.0527" y="27.4141" width="25.2632" height="3.15789" rx="1.57895" fill="#919EAB" />
  <rect opacity="0.24" x="42.1055" y="43.2031" width="44.2105" height="3.15789" rx="1.57895" fill="#919EAB" />
  <rect opacity="0.24" x="42.1055" y="49.5195" width="44.2105" height="3.15789" rx="1.57895" fill="#919EAB" />
  <rect opacity="0.24" x="42.1055" y="36.8867" width="44.2105" height="3.15789" rx="1.57895" fill="#919EAB" />
  <g filter="url(#filter5_di_321_39324)">
    <rect x="149.474" y="94.7812" width="50.5263" height="40" rx="6" fill="white" />
  </g>
  <g filter="url(#filter6_i_321_39324)">
    <rect x="156.842" y="100.043" width="9.47368" height="10.5263" rx="3" fill="#C4CDD5" />
  </g>
  <rect opacity="0.8" x="170.526" y="101.098" width="12.6316" height="3.15789" rx="1.57895" fill="#919EAB" />
  <rect opacity="0.8" x="170.526" y="107.414" width="22.1053" height="3.15789" rx="1.57895" fill="#919EAB" />
  <rect opacity="0.24" x="156.842" y="114.781" width="35.7895" height="3.15789" rx="1.57895" fill="#919EAB" />
  <rect opacity="0.24" x="156.842" y="121.098" width="35.7895" height="3.15789" rx="1.57895" fill="#919EAB" />
  <g filter="url(#filter7_di_321_39324)">
    <rect x="76.8423" y="97.9375" width="27.3684" height="23.1579" rx="6" fill="white" />
  </g>
  <rect opacity="0.8" x="82.1055" y="103.199" width="16.8421" height="3.15789" rx="1.57895" fill="#919EAB" />
  <rect opacity="0.24" x="82.1055" y="109.516" width="12.6316" height="3.15789" rx="1.57895" fill="#919EAB" />
  <defs>
    <filter id="filter0_iiii_321_39324" x="4.5376" y="74.4961" width="10.707" height="15.707"
      filterUnits="userSpaceOnUse" color-interpolation-filters="sRGB">
      <feFlood flood-opacity="0" result="BackgroundImageFix" />
      <feBlend mode="normal" in="SourceGraphic" in2="BackgroundImageFix" result="shape" />
      <feColorMatrix in="SourceAlpha" type="matrix" values="0 0 0 0 0 0 0 0 0 0 0 0 0 0 0 0 0 0 127 0"
        result="hardAlpha" />
      <feOffset dy="-2" />
      <feGaussianBlur stdDeviation="0.5" />
      <feComposite in2="hardAlpha" operator="arithmetic" k2="-1" k3="1" />
      <feColorMatrix type="matrix" values="0 0 0 0 0.717647 0 0 0 0 0.113725 0 0 0 0 0.0941176 0 0 0 0.6 0" />
      <feBlend mode="normal" in2="shape" result="effect1_innerShadow_321_39324" />
      <feColorMatrix in="SourceAlpha" type="matrix" values="0 0 0 0 0 0 0 0 0 0 0 0 0 0 0 0 0 0 127 0"
        result="hardAlpha" />
      <feOffset dy="-5" />
      <feGaussianBlur stdDeviation="7" />
      <feComposite in2="hardAlpha" operator="arithmetic" k2="-1" k3="1" />
      <feColorMatrix type="matrix" values="0 0 0 0 1 0 0 0 0 0.337255 0 0 0 0 0.188235 0 0 0 0.3 0" />
      <feBlend mode="normal" in2="effect1_innerShadow_321_39324" result="effect2_innerShadow_321_39324" />
      <feColorMatrix in="SourceAlpha" type="matrix" values="0 0 0 0 0 0 0 0 0 0 0 0 0 0 0 0 0 0 127 0"
        result="hardAlpha" />
      <feOffset />
      <feGaussianBlur stdDeviation="1" />
      <feComposite in2="hardAlpha" operator="arithmetic" k2="-1" k3="1" />
      <feColorMatrix type="matrix" values="0 0 0 0 1 0 0 0 0 0.337255 0 0 0 0 0.188235 0 0 0 0.5 0" />
      <feBlend mode="normal" in2="effect2_innerShadow_321_39324" result="effect3_innerShadow_321_39324" />
      <feColorMatrix in="SourceAlpha" type="matrix" values="0 0 0 0 0 0 0 0 0 0 0 0 0 0 0 0 0 0 127 0"
        result="hardAlpha" />
      <feOffset dx="2" dy="2" />
      <feGaussianBlur stdDeviation="1" />
      <feComposite in2="hardAlpha" operator="arithmetic" k2="-1" k3="1" />
      <feColorMatrix type="matrix" values="0 0 0 0 1 0 0 0 0 0.337255 0 0 0 0 0.188235 0 0 0 0.3 0" />
      <feBlend mode="normal" in2="effect3_innerShadow_321_39324" result="effect4_innerShadow_321_39324" />
    </filter>
    <filter id="filter1_iiii_321_39324" x="145.263" y="37.1484" width="10.707" height="15.707"
      filterUnits="userSpaceOnUse" color-interpolation-filters="sRGB">
      <feFlood flood-opacity="0" result="BackgroundImageFix" />
      <feBlend mode="normal" in="SourceGraphic" in2="BackgroundImageFix" result="shape" />
      <feColorMatrix in="SourceAlpha" type="matrix" values="0 0 0 0 0 0 0 0 0 0 0 0 0 0 0 0 0 0 127 0"
        result="hardAlpha" />
      <feOffset dy="-2" />
      <feGaussianBlur stdDeviation="0.5" />
      <feComposite in2="hardAlpha" operator="arithmetic" k2="-1" k3="1" />
      <feColorMatrix type="matrix" values="0 0 0 0 0.717647 0 0 0 0 0.431373 0 0 0 0 0 0 0 0 0.6 0" />
      <feBlend mode="normal" in2="shape" result="effect1_innerShadow_321_39324" />
      <feColorMatrix in="SourceAlpha" type="matrix" values="0 0 0 0 0 0 0 0 0 0 0 0 0 0 0 0 0 0 127 0"
        result="hardAlpha" />
      <feOffset dy="-5" />
      <feGaussianBlur stdDeviation="7" />
      <feComposite in2="hardAlpha" operator="arithmetic" k2="-1" k3="1" />
      <feColorMatrix type="matrix" values="0 0 0 0 1 0 0 0 0 0.670588 0 0 0 0 0 0 0 0 0.3 0" />
      <feBlend mode="normal" in2="effect1_innerShadow_321_39324" result="effect2_innerShadow_321_39324" />
      <feColorMatrix in="SourceAlpha" type="matrix" values="0 0 0 0 0 0 0 0 0 0 0 0 0 0 0 0 0 0 127 0"
        result="hardAlpha" />
      <feOffset />
      <feGaussianBlur stdDeviation="1" />
      <feComposite in2="hardAlpha" operator="arithmetic" k2="-1" k3="1" />
      <feColorMatrix type="matrix" values="0 0 0 0 1 0 0 0 0 0.670588 0 0 0 0 0 0 0 0 0.5 0" />
      <feBlend mode="normal" in2="effect2_innerShadow_321_39324" result="effect3_innerShadow_321_39324" />
      <feColorMatrix in="SourceAlpha" type="matrix" values="0 0 0 0 0 0 0 0 0 0 0 0 0 0 0 0 0 0 127 0"
        result="hardAlpha" />
      <feOffset dx="2" dy="2" />
      <feGaussianBlur stdDeviation="1" />
      <feComposite in2="hardAlpha" operator="arithmetic" k2="-1" k3="1" />
      <feColorMatrix type="matrix" values="0 0 0 0 1 0 0 0 0 0.670588 0 0 0 0 0 0 0 0 0.3 0" />
      <feBlend mode="normal" in2="effect3_innerShadow_321_39324" result="effect4_innerShadow_321_39324" />
    </filter>
    <filter id="filter2_iiii_321_39324" x="95.7896" y="152.938" width="10.707" height="15.707"
      filterUnits="userSpaceOnUse" color-interpolation-filters="sRGB">
      <feFlood flood-opacity="0" result="BackgroundImageFix" />
      <feBlend mode="normal" in="SourceGraphic" in2="BackgroundImageFix" result="shape" />
      <feColorMatrix in="SourceAlpha" type="matrix" values="0 0 0 0 0 0 0 0 0 0 0 0 0 0 0 0 0 0 127 0"
        result="hardAlpha" />
      <feOffset dy="-2" />
      <feGaussianBlur stdDeviation="0.5" />
      <feComposite in2="hardAlpha" operator="arithmetic" k2="-1" k3="1" />
      <feColorMatrix type="matrix" values="0 0 0 0 0.0117647 0 0 0 0 0.317647 0 0 0 0 0.670588 0 0 0 0.6 0" />
      <feBlend mode="normal" in2="shape" result="effect1_innerShadow_321_39324" />
      <feColorMatrix in="SourceAlpha" type="matrix" values="0 0 0 0 0 0 0 0 0 0 0 0 0 0 0 0 0 0 127 0"
        result="hardAlpha" />
      <feOffset dy="-5" />
      <feGaussianBlur stdDeviation="7" />
      <feComposite in2="hardAlpha" operator="arithmetic" k2="-1" k3="1" />
      <feColorMatrix type="matrix" values="0 0 0 0 0.407843 0 0 0 0 0.803922 0 0 0 0 0.976471 0 0 0 0.3 0" />
      <feBlend mode="normal" in2="effect1_innerShadow_321_39324" result="effect2_innerShadow_321_39324" />
      <feColorMatrix in="SourceAlpha" type="matrix" values="0 0 0 0 0 0 0 0 0 0 0 0 0 0 0 0 0 0 127 0"
        result="hardAlpha" />
      <feOffset />
      <feGaussianBlur stdDeviation="1" />
      <feComposite in2="hardAlpha" operator="arithmetic" k2="-1" k3="1" />
      <feColorMatrix type="matrix" values="0 0 0 0 0.407843 0 0 0 0 0.803922 0 0 0 0 0.976471 0 0 0 0.5 0" />
      <feBlend mode="normal" in2="effect2_innerShadow_321_39324" result="effect3_innerShadow_321_39324" />
      <feColorMatrix in="SourceAlpha" type="matrix" values="0 0 0 0 0 0 0 0 0 0 0 0 0 0 0 0 0 0 127 0"
        result="hardAlpha" />
      <feOffset dx="2" dy="2" />
      <feGaussianBlur stdDeviation="1" />
      <feComposite in2="hardAlpha" operator="arithmetic" k2="-1" k3="1" />
      <feColorMatrix type="matrix" values="0 0 0 0 0.407843 0 0 0 0 0.803922 0 0 0 0 0.976471 0 0 0 0.3 0" />
      <feBlend mode="normal" in2="effect3_innerShadow_321_39324" result="effect4_innerShadow_321_39324" />
    </filter>
    <filter id="filter3_di_321_39324" x="6.73682" y="0.675781" width="98.9473" height="90.5273"
      filterUnits="userSpaceOnUse" color-interpolation-filters="sRGB">
      <feFlood flood-opacity="0" result="BackgroundImageFix" />
      <feColorMatrix in="SourceAlpha" type="matrix" values="0 0 0 0 0 0 0 0 0 0 0 0 0 0 0 0 0 0 127 0"
        result="hardAlpha" />
      <feOffset dx="-8" dy="8" />
      <feGaussianBlur stdDeviation="10" />
      <feComposite in2="hardAlpha" operator="out" />
      <feColorMatrix type="matrix" values="0 0 0 0 0.270588 0 0 0 0 0.309804 0 0 0 0 0.356863 0 0 0 0.12 0" />
      <feBlend mode="normal" in2="BackgroundImageFix" result="effect1_dropShadow_321_39324" />
      <feBlend mode="normal" in="SourceGraphic" in2="effect1_dropShadow_321_39324" result="shape" />
      <feColorMatrix in="SourceAlpha" type="matrix" values="0 0 0 0 0 0 0 0 0 0 0 0 0 0 0 0 0 0 127 0"
        result="hardAlpha" />
      <feOffset dx="1" dy="-3" />
      <feComposite in2="hardAlpha" operator="arithmetic" k2="-1" k3="1" />
      <feColorMatrix type="matrix" values="0 0 0 0 0.270588 0 0 0 0 0.309804 0 0 0 0 0.356863 0 0 0 0.12 0" />
      <feBlend mode="normal" in2="shape" result="effect2_innerShadow_321_39324" />
    </filter>
    <filter id="filter4_i_321_39324" x="42.1055" y="15.8867" width="12.6313" height="15.7383"
      filterUnits="userSpaceOnUse" color-interpolation-filters="sRGB">
      <feFlood flood-opacity="0" result="BackgroundImageFix" />
      <feBlend mode="normal" in="SourceGraphic" in2="BackgroundImageFix" result="shape" />
      <feColorMatrix in="SourceAlpha" type="matrix" values="0 0 0 0 0 0 0 0 0 0 0 0 0 0 0 0 0 0 127 0"
        result="hardAlpha" />
      <feOffset dy="-1.5" />
      <feGaussianBlur stdDeviation="0.5" />
      <feComposite in2="hardAlpha" operator="arithmetic" k2="-1" k3="1" />
      <feColorMatrix type="matrix" values="0 0 0 0 0 0 0 0 0 0 0 0 0 0 0 0 0 0 0.08 0" />
      <feBlend mode="normal" in2="shape" result="effect1_innerShadow_321_39324" />
    </filter>
    <filter id="filter5_di_321_39324" x="121.474" y="82.7812" width="90.5264" height="80" filterUnits="userSpaceOnUse"
      color-interpolation-filters="sRGB">
      <feFlood flood-opacity="0" result="BackgroundImageFix" />
      <feColorMatrix in="SourceAlpha" type="matrix" values="0 0 0 0 0 0 0 0 0 0 0 0 0 0 0 0 0 0 127 0"
        result="hardAlpha" />
      <feOffset dx="-8" dy="8" />
      <feGaussianBlur stdDeviation="10" />
      <feComposite in2="hardAlpha" operator="out" />
      <feColorMatrix type="matrix" values="0 0 0 0 0.270588 0 0 0 0 0.309804 0 0 0 0 0.356863 0 0 0 0.12 0" />
      <feBlend mode="normal" in2="BackgroundImageFix" result="effect1_dropShadow_321_39324" />
      <feBlend mode="normal" in="SourceGraphic" in2="effect1_dropShadow_321_39324" result="shape" />
      <feColorMatrix in="SourceAlpha" type="matrix" values="0 0 0 0 0 0 0 0 0 0 0 0 0 0 0 0 0 0 127 0"
        result="hardAlpha" />
      <feOffset dx="1" dy="-3" />
      <feComposite in2="hardAlpha" operator="arithmetic" k2="-1" k3="1" />
      <feColorMatrix type="matrix" values="0 0 0 0 0.270588 0 0 0 0 0.309804 0 0 0 0 0.356863 0 0 0 0.12 0" />
      <feBlend mode="normal" in2="shape" result="effect2_innerShadow_321_39324" />
    </filter>
    <filter id="filter6_i_321_39324" x="156.842" y="99.043" width="9.47363" height="11.5273"
      filterUnits="userSpaceOnUse" color-interpolation-filters="sRGB">
      <feFlood flood-opacity="0" result="BackgroundImageFix" />
      <feBlend mode="normal" in="SourceGraphic" in2="BackgroundImageFix" result="shape" />
      <feColorMatrix in="SourceAlpha" type="matrix" values="0 0 0 0 0 0 0 0 0 0 0 0 0 0 0 0 0 0 127 0"
        result="hardAlpha" />
      <feOffset dy="-1" />
      <feGaussianBlur stdDeviation="0.5" />
      <feComposite in2="hardAlpha" operator="arithmetic" k2="-1" k3="1" />
      <feColorMatrix type="matrix" values="0 0 0 0 0 0 0 0 0 0 0 0 0 0 0 0 0 0 0.08 0" />
      <feBlend mode="normal" in2="shape" result="effect1_innerShadow_321_39324" />
    </filter>
    <filter id="filter7_di_321_39324" x="48.8423" y="85.9375" width="67.3687" height="63.1562"
      filterUnits="userSpaceOnUse" color-interpolation-filters="sRGB">
      <feFlood flood-opacity="0" result="BackgroundImageFix" />
      <feColorMatrix in="SourceAlpha" type="matrix" values="0 0 0 0 0 0 0 0 0 0 0 0 0 0 0 0 0 0 127 0"
        result="hardAlpha" />
      <feOffset dx="-8" dy="8" />
      <feGaussianBlur stdDeviation="10" />
      <feComposite in2="hardAlpha" operator="out" />
      <feColorMatrix type="matrix" values="0 0 0 0 0.270588 0 0 0 0 0.309804 0 0 0 0 0.356863 0 0 0 0.12 0" />
      <feBlend mode="normal" in2="BackgroundImageFix" result="effect1_dropShadow_321_39324" />
      <feBlend mode="normal" in="SourceGraphic" in2="effect1_dropShadow_321_39324" result="shape" />
      <feColorMatrix in="SourceAlpha" type="matrix" values="0 0 0 0 0 0 0 0 0 0 0 0 0 0 0 0 0 0 127 0"
        result="hardAlpha" />
      <feOffset dx="1" dy="-2" />
      <feComposite in2="hardAlpha" operator="arithmetic" k2="-1" k3="1" />
      <feColorMatrix type="matrix" values="0 0 0 0 0.270588 0 0 0 0 0.309804 0 0 0 0 0.356863 0 0 0 0.12 0" />
      <feBlend mode="normal" in2="shape" result="effect2_innerShadow_321_39324" />
    </filter>
  </defs>
</svg>