<svg width="212" height="160" viewBox="0 0 212 160" fill="none" xmlns="http://www.w3.org/2000/svg">
  <g opacity="0.2">
    <path opacity="0.64" fill-rule="evenodd" clip-rule="evenodd"
      d="M0 88.347C0 106.772 6.60088 123.562 17.4631 136.252C29.9244 150.814 47.9947 159.969 68.1371 160C76.9401 160.013 85.3574 158.272 93.0891 155.095C97.0867 153.451 101.561 153.64 105.433 155.587C109.975 157.868 115.06 159.147 120.431 159.147C122.649 159.147 124.822 158.928 126.923 158.51C132.921 157.323 138.38 154.515 142.863 150.537C145.68 148.036 149.288 146.779 152.976 146.783H153.038C165.223 146.783 176.542 142.902 185.939 136.252C194.34 130.314 201.2 122.165 205.771 112.596C209.757 104.258 212 94.8391 212 84.8701C212 50.6788 185.6 22.9571 153.038 22.9571C149.719 22.9571 146.467 23.2515 143.294 23.8008C134.893 9.52003 119.849 0 102.687 0C95.4412 0 88.572 1.69675 82.4232 4.73832C76.5757 7.62148 71.3767 11.7183 67.1238 16.7111C52.6826 16.9529 39.3295 21.9066 28.4005 30.174C11.1969 43.1801 0 64.3922 0 88.347Z"
      fill="url(#paint0_linear_108_156683)" />
  </g>
  <path opacity="0.05"
    d="M129.411 91.6405C128.418 92.8284 127.346 92.8085 126.707 92.6411L126.73 92.0258C126.73 92.0258 129.371 90.8113 129.304 91.0665C129.279 91.1621 129.329 91.392 129.411 91.6405Z"
    fill="#FF5630" />
  <path opacity="0.05"
    d="M136.649 92.9846C134.962 93.9653 133.973 92.8159 133.744 92.4903C133.885 92.117 134.098 91.511 134.054 91.3383C133.991 91.0818 136.628 92.2963 136.628 92.2963L136.649 92.9846Z"
    fill="#FF5630" />
  <path opacity="0.05"
    d="M134.842 83.2019C134.842 83.2019 136.447 82.2717 136.797 82.6903C137.146 83.1088 134.842 83.2019 134.842 83.2019Z"
    fill="#FF5630" />
  <path opacity="0.05"
    d="M135.811 83.7129C135.811 83.7129 135.547 83.8458 136.129 84.0158C136.712 84.1859 135.811 83.7129 135.811 83.7129Z"
    fill="#FF5630" />
  <path opacity="0.05"
    d="M126.11 81.1552C126.056 81.1712 127.445 82.0986 128.699 81.3306C128.694 81.3306 126.423 81.0595 126.11 81.1552Z"
    fill="#FF5630" />
  <path opacity="0.05"
    d="M128.631 82.9277C128.631 82.9277 128.251 83.6798 127.472 83.7914C126.693 83.903 128.631 82.9277 128.631 82.9277Z"
    fill="#FF5630" />
  <path opacity="0.05"
    d="M133.73 84.5605C133.73 84.5605 135.558 87.4838 135.208 88.1735C134.858 88.8631 133.73 84.5605 133.73 84.5605Z"
    fill="#FF5630" />
  <path opacity="0.05"
    d="M130.124 96.184C130.124 96.3474 130.124 96.5002 130.108 96.6265C130.061 97.2178 128.615 96.9945 128.615 96.9945C127.295 97.1792 126.819 96.5414 126.662 95.9315C126.613 95.7334 126.588 95.5299 126.589 95.3256C126.589 95.2038 126.597 95.0822 126.613 94.9615V94.8406C126.898 94.7542 127.206 94.8177 127.435 95.0094C128.022 95.4891 128.801 95.121 128.801 95.121C128.801 95.121 129.373 95.1688 129.593 95.3602C129.718 95.4678 129.922 95.2087 130.078 94.9615C130.087 95.121 130.102 95.4093 130.111 95.7176C130.122 95.8757 130.124 96.0352 130.124 96.184Z"
    fill="#FF5630" />
  <path opacity="0.05"
    d="M127.806 96.1505C127.806 96.1505 127.409 96.5412 126.662 95.9379C126.613 95.7398 126.588 95.5363 126.589 95.332C126.971 95.6244 127.679 96.1505 127.806 96.1505Z"
    fill="#FF5630" />
  <path opacity="0.05"
    d="M130.124 96.1845C130.059 96.2351 129.976 96.2563 129.895 96.2433C129.813 96.2302 129.741 96.1839 129.695 96.1154C129.849 95.9975 129.99 95.8639 130.117 95.7168C130.121 95.8762 130.124 96.0357 130.124 96.1845Z"
    fill="#FF5630" />
  <path opacity="0.05"
    d="M133.223 96.4585C133.223 96.6233 133.223 96.7761 133.238 96.901C133.286 97.4936 134.731 97.269 134.731 97.269C136.052 97.4551 136.527 96.8173 136.684 96.206C136.762 95.8888 136.779 95.5595 136.733 95.236V95.1151C136.448 95.0302 136.14 95.0935 135.911 95.2839C135.323 95.7636 134.545 95.3955 134.545 95.3955C134.545 95.3955 133.973 95.4446 133.753 95.636C133.629 95.7436 133.424 95.4845 133.27 95.2374C133.26 95.3968 133.245 95.6852 133.235 95.9934C133.225 96.1489 133.222 96.3083 133.223 96.4585Z"
    fill="#FF5630" />
  <path opacity="0.05"
    d="M135.542 96.4207C135.542 96.4207 135.939 96.8114 136.685 96.2081C136.734 96.0105 136.759 95.8074 136.759 95.6035C136.376 95.8945 135.668 96.4207 135.542 96.4207Z"
    fill="#FF5630" />
  <path opacity="0.05"
    d="M133.223 96.458C133.288 96.5085 133.371 96.5297 133.452 96.5166C133.533 96.5035 133.605 96.4573 133.651 96.3889C133.497 96.2711 133.356 96.1375 133.229 95.9902C133.225 96.1484 133.222 96.3078 133.223 96.458Z"
    fill="#FF5630" />
  <g opacity="0.05">
    <path
      d="M141.164 47.2291C141.191 47.168 141.218 47.1069 141.243 47.0471C141.268 46.9873 141.277 46.9541 141.292 46.9062C141.243 47.0114 141.2 47.1192 141.164 47.2291Z"
      fill="#FF5630" />
  </g>
  <path fill-rule="evenodd" clip-rule="evenodd"
    d="M69.6036 124.203C69.2836 123.815 69.1369 123.312 69.1982 122.812L75.0268 74.8208L75.51 70.8345C75.6221 69.9173 76.3928 69.2259 77.3112 69.2188L94.3834 69.1045C94.8745 69.1015 95.3437 68.8995 95.685 68.5443C96.0264 68.189 96.2112 67.7103 96.1977 67.2163L96.1911 67.0343C96.1743 66.536 96.3592 66.0523 96.7035 65.6938C97.0477 65.3353 97.5219 65.1329 98.0173 65.1328H115.957C116.964 65.1328 117.781 65.9531 117.783 66.9665C117.783 67.0491 117.778 67.1317 117.767 67.2137C117.699 67.7309 117.852 68.2531 118.188 68.6501C118.525 69.0471 119.013 69.2814 119.532 69.2945L136.761 69.737C137.291 69.7501 137.789 69.9946 138.126 70.4069C138.463 70.8191 138.604 71.3584 138.515 71.8843L129.901 122.51L129.739 123.467C129.699 123.711 129.609 123.945 129.475 124.153L69.6036 124.203Z"
    fill="#005249" />
  <rect width="10.1089" height="34.3868" transform="matrix(0.821068 0.570831 -0.566006 0.824401 121.598 54.9668)"
    fill="white" />
  <rect width="7.1368" height="7.15241" transform="matrix(0.819427 0.573184 -0.568359 0.822781 122.196 56.3105)"
    fill="#FFAB00" />
  <rect opacity="0.5" width="7.14633" height="7.1622"
    transform="matrix(0.821068 0.570831 -0.566006 0.824401 117.614 63.4023)" fill="#FFAB00" />
  <rect opacity="0.3" width="7.14633" height="7.1622"
    transform="matrix(0.821068 0.570831 -0.566006 0.824401 112.719 70.5293)" fill="#FFAB00" />
  <rect width="10.0933" height="34.3092" transform="matrix(0.959378 0.282123 -0.278883 0.960325 109.871 53.1914)"
    fill="white" />
  <rect width="7.13535" height="7.17314" transform="matrix(0.959378 0.282123 -0.278883 0.960325 111.142 54.1426)"
    fill="#FF5630" />
  <rect opacity="0.5" width="7.13535" height="7.17314"
    transform="matrix(0.959378 0.282123 -0.278883 0.960325 108.727 62.459)" fill="#FF5630" />
  <rect opacity="0.3" width="7.13535" height="7.17315"
    transform="matrix(0.959378 0.282124 -0.278883 0.960325 106.312 70.7734)" fill="#FF5630" />
  <rect width="10.0887" height="34.3246" transform="matrix(0.996738 0.0807 -0.0797009 0.996819 103.012 53.7109)"
    fill="white" />
  <rect width="7.1321" height="7.17638" transform="matrix(0.996738 0.0807 -0.0797009 0.996819 104.443 54.3828)"
    fill="#00B8D9" />
  <rect opacity="0.5" width="7.1321" height="7.17638"
    transform="matrix(0.996738 0.0807001 -0.0797008 0.996819 103.751 63.0176)" fill="#00B8D9" />
  <rect opacity="0.3" width="7.1321" height="7.17637"
    transform="matrix(0.996738 0.0807 -0.0797009 0.996819 103.061 71.6543)" fill="#00B8D9" />
  <rect width="10.0885" height="34.3256" transform="matrix(0.99895 -0.0458231 0.0452533 0.998976 98.4873 55.0859)"
    fill="white" />
  <rect width="7.1319" height="7.17657" transform="matrix(0.99895 -0.0458232 0.0452533 0.998976 99.9897 55.5703)"
    fill="#00AB55" />
  <rect opacity="0.5" width="7.14083" height="7.18552"
    transform="matrix(0.998737 -0.0502509 0.0496263 0.998768 100.661 63.9512)" fill="#00AB55" />
  <rect opacity="0.3" width="7.1319" height="7.17657"
    transform="matrix(0.99895 -0.0458232 0.0452533 0.998976 100.773 72.8809)" fill="#00AB55" />
  <path
    d="M102.767 100.322L93.8038 103.812L80.7035 108.908C80.2083 107.977 79.4795 106.72 78.5776 105.22C75.4745 100.046 70.3405 91.9977 65.7691 84.9247C60.6193 76.9521 56.1865 70.2245 56.1865 70.2245L59.3952 69.2944L85.6064 61.6367L102.767 100.322Z"
    fill="#F4F6F8" />
  <path opacity="0.1"
    d="M102.767 100.322L93.8032 103.812C88.7961 104.861 83.6865 105.334 78.5731 105.22C75.47 100.046 70.336 91.9977 65.7646 84.9247L59.396 69.2891L85.6058 61.6367L102.767 100.322Z"
    fill="black" />
  <path
    d="M109.435 98.1504C109.435 98.1504 95.5109 106.439 74.7215 104.564L58.1484 63.9041L66.091 62.5302L93.5487 57.7852L109.13 97.3598L109.435 98.1504Z"
    fill="#00AB55" />
  <path opacity="0.1"
    d="M109.125 97.3656C105.846 97.5278 102.052 97.5118 98.2361 97.0534C94.1057 96.5644 89.9516 95.5572 86.3903 93.7102C83.4126 92.1675 80.8668 90.4893 78.6471 88.4762C72.8727 83.2502 69.2995 75.7745 66.0908 62.536L93.5485 57.791L109.125 97.3656Z"
    fill="#FF5630" />
  <path
    d="M119.34 95.0929C119.34 95.0929 109.076 97.1153 98.6282 95.8702C94.4978 95.3813 90.3436 94.3741 86.7823 92.5271C83.8047 90.9844 81.2602 89.3061 79.0391 87.2931C71.8928 80.8233 68.1189 70.908 64.2275 50.8849C64.2275 50.8849 81.2905 55.0293 98.1634 45.9512C98.1581 45.9578 103.845 81.6724 119.34 95.0929Z"
    fill="white" />
  <g opacity="0.3">
    <path
      d="M73.0537 58.2345C73.0537 58.2345 86.9291 57.4452 90.8033 54.4355L91.3909 56.3357C91.3909 56.3357 82.223 60.4057 73.0537 60.4549V58.2345Z"
      fill="#00AB55" />
    <path
      d="M73.0537 67.6156C73.0537 67.6156 86.4881 66.8754 96.6385 61.9417L96.9818 62.731C96.9818 62.731 88.927 67.4628 73.0537 68.7012V67.6156Z"
      fill="#00AB55" />
    <path
      d="M74.1354 71.2711C74.1354 71.2711 87.5698 70.5309 97.7189 65.5972L98.0622 66.3865C98.0622 66.3865 90.0074 71.1169 74.1354 72.3567V71.2711Z"
      fill="#00AB55" />
    <path
      d="M75.2155 74.9317C75.2155 74.9317 88.6498 74.1916 98.8002 69.2579L99.1422 70.0472C99.1422 70.0472 91.0874 74.7789 75.2155 76.0174V74.9317Z"
      fill="#00AB55" />
    <path
      d="M76.2968 78.5926C76.2968 78.5926 89.7311 77.8524 99.8802 72.9187L100.224 73.708C100.224 73.708 92.1687 78.4397 76.2968 79.6782V78.5926Z"
      fill="#00AB55" />
    <path
      d="M77.3768 82.2546C77.3768 82.2546 90.8111 81.5144 100.962 76.5807L101.304 77.37C101.304 77.37 93.2487 82.1004 77.3768 83.3402V82.2546Z"
      fill="#00AB55" />
  </g>
  <path
    d="M171.839 127.708C171.839 127.708 166.256 127.369 166.914 131.306C166.914 131.306 166.782 132.001 167.41 132.317C167.41 132.317 167.419 132.025 167.982 132.125C168.183 132.159 168.386 132.168 168.589 132.154C168.863 132.135 169.123 132.027 169.33 131.846C169.33 131.846 170.9 131.193 171.51 128.613C171.51 128.613 171.962 128.049 171.943 127.904L171.002 128.303C171.002 128.303 171.324 128.987 171.07 129.555C171.07 129.555 171.04 128.328 170.859 128.359C170.822 128.359 170.369 128.595 170.369 128.595C170.369 128.595 170.923 129.791 170.501 130.652C170.501 130.652 170.66 129.184 170.192 128.682L169.532 129.071C169.532 129.071 170.179 130.302 169.741 131.306C169.741 131.306 169.853 129.766 169.392 129.165L168.791 129.637C168.791 129.637 169.4 130.85 169.029 131.683C169.029 131.683 168.98 129.89 168.661 129.754C168.661 129.754 168.132 130.221 168.056 130.419C168.056 130.419 168.472 131.298 168.213 131.763C168.213 131.763 168.055 130.567 167.925 130.567C167.925 130.567 167.397 131.365 167.347 131.896C167.347 131.896 167.369 131.088 167.798 130.486C167.496 130.544 167.217 130.69 166.996 130.905C166.996 130.905 167.077 130.344 167.928 130.296C167.928 130.296 168.361 129.696 168.476 129.658C168.476 129.658 167.631 129.588 167.118 129.817C167.118 129.817 167.57 129.285 168.632 129.528L169.224 129.042C169.224 129.042 168.111 128.888 167.64 129.058C167.64 129.058 168.183 128.59 169.384 128.925L170.03 128.537C170.03 128.537 169.082 128.331 168.517 128.404C168.517 128.404 169.112 128.08 170.22 128.431L170.681 128.222C170.681 128.222 169.986 128.089 169.783 128.063C169.58 128.036 169.568 127.986 169.568 127.986C170.008 127.911 170.46 127.961 170.874 128.132C170.874 128.132 171.855 127.77 171.839 127.708Z"
    fill="#00AB55" />
  <path
    d="M174.439 114.711C174.439 114.711 171.292 114.52 171.666 116.74C171.627 116.971 171.739 117.201 171.945 117.31C171.945 117.31 171.951 117.145 172.268 117.201C172.381 117.22 172.496 117.225 172.61 117.217C172.764 117.207 172.911 117.146 173.028 117.044C173.028 117.044 173.912 116.676 174.257 115.221C174.257 115.221 174.512 114.904 174.501 114.823L173.973 115.05C173.973 115.05 174.154 115.437 174.011 115.757C174.011 115.757 173.994 115.065 173.892 115.081C173.871 115.081 173.617 115.213 173.617 115.213C173.617 115.213 173.928 115.878 173.693 116.373C173.693 116.373 173.783 115.546 173.519 115.261L173.145 115.482C173.145 115.482 173.51 116.175 173.263 116.742C173.263 116.742 173.326 115.873 173.066 115.535L172.728 115.801C172.728 115.801 173.07 116.485 172.86 116.954C172.86 116.954 172.832 115.943 172.653 115.867C172.524 115.977 172.41 116.101 172.311 116.238C172.311 116.238 172.546 116.735 172.4 116.997C172.4 116.997 172.311 116.323 172.238 116.32C172.238 116.32 171.942 116.765 171.912 117.071C171.926 116.787 172.014 116.513 172.167 116.274C171.996 116.306 171.838 116.388 171.714 116.51C171.714 116.51 171.76 116.194 172.242 116.167C172.242 116.167 172.486 115.829 172.551 115.807C172.551 115.807 172.074 115.768 171.785 115.896C171.785 115.896 172.04 115.599 172.638 115.734L172.973 115.459C172.973 115.459 172.345 115.373 172.079 115.469C172.079 115.469 172.386 115.203 173.063 115.397L173.428 115.178C173.147 115.116 172.86 115.091 172.573 115.104C172.573 115.104 172.91 114.921 173.533 115.119L173.797 115.002C173.797 115.002 173.401 114.924 173.29 114.912C173.179 114.9 173.169 114.868 173.169 114.868C173.417 114.826 173.672 114.855 173.906 114.95C173.906 114.95 174.45 114.746 174.439 114.711Z"
    fill="#00AB55" />
  <path
    d="M155.863 116.638C155.863 116.638 152.063 116.407 152.511 119.087C152.464 119.365 152.6 119.643 152.848 119.775C152.848 119.775 152.848 119.576 153.244 119.642C153.381 119.665 153.52 119.672 153.658 119.662C153.844 119.65 154.021 119.576 154.162 119.452C154.162 119.452 155.23 119.008 155.646 117.252C155.646 117.252 155.954 116.869 155.941 116.769L155.292 117.046C155.292 117.046 155.512 117.511 155.339 117.897C155.339 117.897 155.317 117.063 155.195 117.082C155.17 117.082 154.862 117.244 154.862 117.244C154.862 117.244 155.238 118.054 154.954 118.644C154.954 118.644 155.063 117.645 154.744 117.302L154.293 117.568C154.293 117.568 154.732 118.406 154.434 119.089C154.434 119.089 154.511 118.041 154.198 117.628L153.788 117.949C153.788 117.949 154.203 118.774 153.949 119.342C153.949 119.342 153.918 118.121 153.7 118.029C153.7 118.029 153.342 118.347 153.288 118.477C153.288 118.477 153.57 119.076 153.395 119.392C153.395 119.392 153.287 118.579 153.198 118.575C153.198 118.575 152.843 119.115 152.802 119.483C152.82 119.141 152.926 118.811 153.11 118.523C152.904 118.563 152.714 118.662 152.564 118.809C152.564 118.809 152.62 118.428 153.198 118.394C153.198 118.394 153.493 117.985 153.572 117.961C153.572 117.961 152.996 117.912 152.647 118.068C152.647 118.068 152.954 117.709 153.676 117.872L154.08 117.54C154.08 117.54 153.324 117.436 153.001 117.551C153.001 117.551 153.371 117.233 154.19 117.466L154.629 117.2C154.629 117.2 153.984 117.06 153.598 117.111C153.598 117.111 154.005 116.89 154.758 117.129L155.072 116.987C155.072 116.987 154.599 116.894 154.46 116.88C154.322 116.865 154.315 116.827 154.315 116.827C154.615 116.775 154.923 116.809 155.204 116.925C155.204 116.925 155.875 116.679 155.863 116.638Z"
    fill="#00AB55" />
  <rect width="22.6645" height="40.3538" rx="5" transform="matrix(0.307434 -0.951569 0.950429 0.31094 122.842 55.5605)"
    fill="white" />
  <g opacity="0.24">
    <path
      d="M138.237 46.0029C138.237 48.3043 136.383 50.17 134.096 50.17C131.809 50.17 129.955 48.3043 129.955 46.0029C129.955 43.7016 131.809 41.8359 134.096 41.8359C136.383 41.8359 138.237 43.7016 138.237 46.0029Z"
      fill="#00AB55" />
    <path d="M144.004 45.2528L144.354 44.1673L161.512 49.7805L161.161 50.866L144.004 45.2528Z" fill="#00AB55" />
    <path d="M143.109 48.0203L143.46 46.9348L152.2 49.7942L151.85 50.8796L143.109 48.0203Z" fill="#00AB55" />
    <path d="M142.214 50.7895L142.564 49.7041L156.7 54.3288L156.35 55.4143L142.214 50.7895Z" fill="#00AB55" />
    <path d="M141.32 53.5577L141.671 52.4722L158.828 58.0854L158.477 59.1709L141.32 53.5577Z" fill="#00AB55" />
  </g>
  <rect opacity="0.5" width="2.20576" height="4.99566"
    transform="matrix(0.307433 -0.95157 0.950429 0.310941 152.111 62.627)" fill="#00AB55" />
  <rect width="22.3149" height="34.6483" rx="4" transform="matrix(0.53836 -0.842715 0.839631 0.543157 119.323 94.9414)"
    fill="white" />
  <path d="M137.403 100.965L144.806 89.2402L145.95 89.972L138.547 101.697L137.403 100.965Z" fill="#F4F6F8" />
  <path d="M139.848 102.527L147.251 90.8023L148.395 91.5341L140.993 103.259L139.848 102.527Z" fill="#F4F6F8" />
  <path d="M123.634 93.6314L127.005 88.2928L128.253 89.0909L124.883 94.4295L123.634 93.6314Z" fill="#DFE3E8" />
  <path d="M127.624 94.7129L135.027 82.9883L136.171 83.7201L128.769 95.4447L127.624 94.7129Z" fill="#DFE3E8" />
  <path d="M130.069 96.2747L137.472 84.5501L138.616 85.2819L131.214 97.0065L130.069 96.2747Z" fill="#DFE3E8" />
  <path d="M132.514 97.8392L139.916 86.1146L141.061 86.8464L133.658 98.571L132.514 97.8392Z" fill="#DFE3E8" />
  <path d="M135.043 100.106L142.498 88.4374L143.637 89.1743L136.183 100.843L135.043 100.106Z" fill="#DFE3E8" />
  <path d="M150.114 95.8665L152.03 92.8305L155.047 94.7594L153.131 97.7955L150.114 95.8665Z" fill="#DFE3E8" />
  <path
    d="M118.93 75.004L98.7168 75.2232C97.9602 75.2312 97.3508 75.8504 97.3501 76.6118V78.2927C97.3497 79.0465 96.7521 79.6625 96.0033 79.6812L81.4175 80.0334C80.7813 80.0494 80.2168 79.6257 80.0508 79.0075L79.3655 76.4736C79.2011 75.8623 78.6465 75.4403 78.0173 75.4478L58.5339 75.6591C58.1299 75.663 57.7479 75.845 57.4887 76.1569C57.2296 76.4688 57.1193 76.8793 57.187 77.2802L65.0252 123.702C65.1376 124.368 65.7098 124.857 66.3814 124.859L127.933 125.125C128.346 125.126 128.737 124.942 129.001 124.623C129.264 124.304 129.372 123.882 129.295 123.475L120.3 76.1321C120.175 75.4723 119.598 74.9972 118.93 75.004V75.004Z"
    fill="url(#paint1_linear_108_156683)" />
  <g opacity="0.2">
    <path
      d="M171.944 132.66C171.944 133.031 170.175 133.332 167.993 133.332C165.811 133.332 164.043 133.031 164.043 132.66C164.043 132.288 165.811 131.987 167.993 131.987C170.175 131.987 171.944 132.288 171.944 132.66Z"
      fill="#00AB55" />
    <path
      d="M174.501 117.502C174.501 117.711 173.504 117.881 172.273 117.881C171.043 117.881 170.046 117.711 170.046 117.502C170.046 117.293 171.043 117.124 172.273 117.124C173.504 117.124 174.501 117.293 174.501 117.502Z"
      fill="#00AB55" />
    <path
      d="M155.935 120.008C155.935 120.261 154.731 120.466 153.246 120.466C151.76 120.466 150.556 120.261 150.556 120.008C150.556 119.756 151.76 119.551 153.246 119.551C154.731 119.551 155.935 119.756 155.935 120.008Z"
      fill="#00AB55" />
    <path
      d="M54.961 114.96C54.961 115.124 54.0026 115.257 52.8205 115.257C51.6383 115.257 50.68 115.124 50.68 114.96C50.68 114.797 51.6383 114.664 52.8205 114.664C54.0026 114.664 54.961 114.797 54.961 114.96Z"
      fill="#00AB55" />
    <path
      d="M46.7621 115.796C46.7621 115.96 45.8038 116.093 44.6216 116.093C43.4395 116.093 42.4812 115.96 42.4812 115.796C42.4812 115.633 43.4395 115.5 44.6216 115.5C45.8038 115.5 46.7621 115.633 46.7621 115.796Z"
      fill="#00AB55" />
    <path
      d="M49.4243 118.179C49.4243 118.295 48.7433 118.389 47.9031 118.389C47.063 118.389 46.382 118.295 46.382 118.179C46.382 118.063 47.063 117.969 47.9031 117.969C48.7433 117.969 49.4243 118.063 49.4243 118.179Z"
      fill="#00AB55" />
    <path
      d="M40.9149 117.969C40.9149 118.085 40.2338 118.179 39.3937 118.179C38.5536 118.179 37.8726 118.085 37.8726 117.969C37.8726 117.853 38.5536 117.759 39.3937 117.759C40.2338 117.759 40.9149 117.853 40.9149 117.969Z"
      fill="#00AB55" />
  </g>
  <path
    d="M38.5555 117.49C38.4598 117.412 38.3903 117.305 38.3561 117.186C38.3224 117.062 38.3813 116.932 38.4961 116.876C38.6281 116.827 38.7602 116.916 38.8658 117.009C38.9714 117.102 39.0916 117.201 39.2236 117.178C39.0811 117.048 39.0169 116.852 39.0546 116.662C39.06 116.624 39.076 116.587 39.1008 116.557C39.1721 116.48 39.3016 116.514 39.3874 116.575C39.6515 116.766 39.7347 117.137 39.736 117.472C39.7492 117.349 39.7492 117.225 39.736 117.102C39.7289 116.977 39.7843 116.856 39.8839 116.779C39.9482 116.744 40.0206 116.727 40.0938 116.729C40.2165 116.711 40.3409 116.747 40.4358 116.827C40.5283 116.954 40.5229 117.128 40.4226 117.248C40.3215 117.363 40.2018 117.459 40.0687 117.533C39.9677 117.594 39.8816 117.677 39.8165 117.776C39.8086 117.789 39.8023 117.804 39.798 117.818H39.0295C38.8575 117.731 38.698 117.621 38.5555 117.49Z"
    fill="#00AB55" />
  <path
    d="M51.9514 114.591C51.8555 114.513 51.7859 114.407 51.752 114.288C51.7182 114.165 51.7764 114.034 51.8907 113.978C52.0227 113.929 52.1548 114.018 52.2604 114.111C52.3661 114.204 52.4849 114.305 52.6209 114.285C52.4783 114.156 52.4137 113.961 52.4506 113.771C52.4564 113.732 52.4729 113.696 52.4981 113.666C52.5694 113.589 52.6988 113.622 52.7846 113.682C53.0553 113.875 53.1319 114.245 53.1332 114.58C53.1465 114.457 53.1465 114.333 53.1332 114.21C53.1213 114.085 53.1706 113.963 53.2653 113.883C53.3299 113.848 53.4022 113.831 53.4752 113.833C53.5977 113.816 53.7218 113.851 53.8172 113.93C53.91 114.058 53.904 114.232 53.8027 114.353C53.7023 114.467 53.583 114.564 53.4502 114.637C53.3491 114.698 53.2629 114.781 53.1979 114.879C53.1902 114.893 53.184 114.908 53.1795 114.923H52.4281C52.2548 114.835 52.0944 114.723 51.9514 114.591Z"
    fill="#00AB55" />
  <path
    d="M47.4872 117.49C47.3916 117.411 47.3217 117.305 47.2865 117.186C47.2528 117.062 47.3117 116.932 47.4265 116.876C47.5585 116.827 47.6905 116.916 47.7962 117.009C47.9018 117.102 48.0193 117.203 48.1567 117.185C48.0143 117.054 47.9497 116.859 47.9863 116.669C47.9922 116.63 48.0086 116.594 48.0339 116.564C48.1052 116.487 48.2346 116.52 48.3204 116.581C48.5911 116.773 48.6664 117.143 48.669 117.478C48.6822 117.355 48.6822 117.232 48.669 117.109C48.6586 116.984 48.7105 116.861 48.8077 116.782C48.8719 116.746 48.9444 116.729 49.0176 116.731C49.1403 116.714 49.2646 116.75 49.3596 116.83C49.4522 116.957 49.4462 117.131 49.3451 117.251C49.2444 117.365 49.1252 117.461 48.9925 117.535C48.8915 117.597 48.8054 117.68 48.7403 117.779C48.7323 117.792 48.7261 117.806 48.7218 117.821H47.956C47.7858 117.732 47.6281 117.621 47.4872 117.49Z"
    fill="#00AB55" />
  <g opacity="0.08">
    <path
      d="M40.1625 38.6674C40.1625 40.2547 38.8838 41.5415 37.3064 41.5415C35.7289 41.5415 34.4502 40.2547 34.4502 38.6674C34.4502 37.0801 35.7289 35.7933 37.3064 35.7933C38.8838 35.7933 40.1625 37.0801 40.1625 38.6674Z"
      fill="#00AB55" />
    <path
      d="M177.502 61.6351C177.502 63.2224 176.224 64.5092 174.646 64.5092C173.069 64.5092 171.79 63.2224 171.79 61.6351C171.79 60.0478 173.069 58.761 174.646 58.761C176.224 58.761 177.502 60.0478 177.502 61.6351Z"
      fill="#00AB55" />
    <path
      d="M126.16 29.5401C126.16 31.1275 124.882 32.4143 123.304 32.4143C121.727 32.4143 120.448 31.1275 120.448 29.5401C120.448 27.9528 121.727 26.666 123.304 26.666C124.882 26.666 126.16 27.9528 126.16 29.5401Z"
      fill="#00AB55" />
    <path
      d="M47.8053 54.5236C47.8053 57.1838 45.6622 59.3404 43.0186 59.3404C40.375 59.3404 38.232 57.1838 38.232 54.5236C38.232 51.8634 40.375 49.7068 43.0186 49.7068C45.6622 49.7068 47.8053 51.8634 47.8053 54.5236Z"
      fill="#00AB55" />
  </g>
  <path fill-rule="evenodd" clip-rule="evenodd"
    d="M90.9965 93.293C87.4741 93.293 84.6187 96.1664 84.6187 99.7109C84.6187 103.255 87.4741 106.129 90.9965 106.129C94.5189 106.129 97.3743 103.255 97.3743 99.7109C97.3743 96.1664 94.5189 93.293 90.9965 93.293V93.293Z"
    fill="#007B55" />
  <path opacity="0.72" fill-rule="evenodd" clip-rule="evenodd"
    d="M90.9963 94.0391C94.1089 94.0391 96.6322 96.5782 96.6322 99.7104C96.6322 102.843 94.1089 105.382 90.9963 105.382C87.8836 105.382 85.3604 102.843 85.3604 99.7104C85.3631 96.5794 87.8848 94.0418 90.9963 94.0391"
    fill="#00AB55" />
  <path fill-rule="evenodd" clip-rule="evenodd"
    d="M88.3592 100.179L88.0508 99.8761C87.9841 99.8148 87.9463 99.7292 87.9463 99.6395C87.9463 99.5498 87.9841 99.4642 88.0508 99.4029L90.7567 96.7432C90.8191 96.6778 90.9063 96.6406 90.9976 96.6406C91.0889 96.6406 91.1762 96.6778 91.2386 96.7432L93.9445 99.4005C94.0099 99.4625 94.0468 99.5479 94.0468 99.6371C94.0468 99.7264 94.0099 99.8118 93.9445 99.8738L93.6361 100.177C93.573 100.241 93.486 100.277 93.3951 100.277C93.3043 100.277 93.2173 100.241 93.1542 100.177L91.5542 98.5203V102.451C91.5549 102.538 91.5201 102.621 91.4577 102.683C91.3953 102.745 91.3103 102.78 91.2217 102.78H90.776C90.591 102.78 90.441 102.632 90.441 102.451V98.525L88.8411 100.181C88.7777 100.245 88.6905 100.281 88.5996 100.281C88.5088 100.28 88.422 100.244 88.3592 100.179V100.179Z"
    fill="#007B55" />
  <path
    d="M44.5756 115.731C44.5756 115.731 47.577 105.829 44.1055 101.863C41.5081 98.8957 38.5595 99.2504 37.2391 99.6172C36.5481 99.8029 35.9727 100.284 35.6651 100.934C35.2029 101.936 35.2861 103.562 38.545 105.461C43.9998 108.639 44.3392 112.999 44.3392 112.999L44.5756 115.731Z"
    fill="#00AB55" />
  <path
    d="M44.6975 115.809C44.6975 115.809 41.1811 108.613 40.2158 108.767C39.7576 108.843 39.5464 109.298 39.45 109.753C39.3315 110.343 39.3984 110.955 39.6414 111.504C40.1406 112.66 41.4809 114.846 44.6975 115.809Z"
    fill="#00AB55" />
  <path
    d="M44.5928 115.809C44.5928 115.809 48.1079 108.613 49.0731 108.767C49.5326 108.843 49.7439 109.298 49.839 109.753C49.9575 110.343 49.8906 110.955 49.6475 111.504C49.1484 112.66 47.8068 114.846 44.5928 115.809Z"
    fill="#00AB55" />
  <path fill-rule="evenodd" clip-rule="evenodd"
    d="M37.6052 100.99C37.6234 100.931 37.6854 100.899 37.7436 100.917L37.7105 101.023C37.7436 100.917 37.7436 100.917 37.7436 100.917L37.7442 100.917L37.7457 100.918L37.751 100.92L37.771 100.926C37.7885 100.932 37.8139 100.941 37.8469 100.953C37.9127 100.977 38.0085 101.013 38.1292 101.064C38.3706 101.165 38.7123 101.322 39.1157 101.548C39.9222 102.001 40.9765 102.729 41.9684 103.834C43.9558 106.047 45.6816 109.759 44.6858 115.751C44.6758 115.812 44.6189 115.852 44.5587 115.842C44.4986 115.832 44.458 115.775 44.468 115.714C45.453 109.787 43.7455 106.144 41.8046 103.983C40.8323 102.9 39.7986 102.186 39.0082 101.743C38.6131 101.521 38.2791 101.367 38.0444 101.269C37.9271 101.22 37.8347 101.185 37.7719 101.162C37.7406 101.151 37.7166 101.142 37.7007 101.137L37.6828 101.131L37.6786 101.13L37.6776 101.129C37.6195 101.111 37.5869 101.049 37.6052 100.99Z"
    fill="#007B55" />
  <path fill-rule="evenodd" clip-rule="evenodd"
    d="M42.9704 101.959C43.0045 102.01 42.9911 102.079 42.9406 102.113L42.9403 102.114L42.9383 102.115L42.9295 102.121C42.9215 102.127 42.9095 102.136 42.8942 102.147C42.8636 102.171 42.8197 102.206 42.7679 102.253C42.6641 102.346 42.53 102.482 42.4079 102.654C42.1639 102.999 41.9734 103.48 42.1536 104.057C42.1719 104.115 42.1396 104.178 42.0814 104.196C42.0232 104.214 41.9612 104.182 41.9429 104.123C41.735 103.458 41.9596 102.904 42.228 102.525C42.3621 102.336 42.5085 102.188 42.6211 102.087C42.6775 102.036 42.7257 101.997 42.7602 101.971C42.7775 101.958 42.7913 101.947 42.801 101.94L42.8124 101.932L42.8156 101.93L42.8166 101.929L42.817 101.929C42.817 101.929 42.8171 101.929 42.8767 102.018L42.817 101.929C42.8676 101.895 42.9363 101.908 42.9704 101.959Z"
    fill="#007B55" />
  <path fill-rule="evenodd" clip-rule="evenodd"
    d="M38.6765 102.835L38.6776 102.834L38.6828 102.829C38.6877 102.824 38.6952 102.817 38.7054 102.808C38.7256 102.79 38.7561 102.763 38.7955 102.733C38.8747 102.672 38.989 102.594 39.1295 102.53C39.4097 102.401 39.7877 102.324 40.2034 102.517C40.2587 102.542 40.3243 102.518 40.3499 102.462C40.3754 102.407 40.3513 102.341 40.2959 102.315C39.8044 102.087 39.3565 102.181 39.0375 102.328C38.8784 102.401 38.7498 102.488 38.661 102.557C38.6165 102.591 38.5817 102.621 38.5577 102.643C38.5457 102.654 38.5364 102.662 38.5299 102.669L38.5223 102.676L38.5201 102.678L38.5194 102.679L38.5191 102.679C38.5191 102.679 38.519 102.679 38.5977 102.757L38.5191 102.679C38.4763 102.723 38.4769 102.794 38.5204 102.837C38.5639 102.88 38.6338 102.879 38.6765 102.835Z"
    fill="#007B55" />
  <path fill-rule="evenodd" clip-rule="evenodd"
    d="M42.1454 106.691L42.1459 106.691L42.1482 106.69L42.1582 106.685C42.1672 106.681 42.1806 106.674 42.198 106.667C42.2328 106.651 42.2832 106.629 42.3449 106.605C42.4688 106.557 42.6355 106.503 42.8104 106.474C42.9867 106.444 43.1622 106.442 43.3087 106.489C43.4502 106.534 43.5688 106.627 43.6401 106.803C43.6631 106.86 43.7276 106.887 43.7841 106.864C43.8405 106.841 43.8676 106.776 43.8445 106.719C43.7468 106.478 43.5751 106.341 43.3761 106.277C43.1823 106.215 42.9672 106.222 42.7741 106.255C42.5796 106.287 42.398 106.347 42.266 106.398C42.1997 106.423 42.1453 106.447 42.1072 106.464C42.0881 106.473 42.0731 106.48 42.0628 106.485L42.0507 106.491L42.0474 106.492L42.0464 106.493L42.046 106.493C42.046 106.493 42.046 106.493 42.0957 106.592L42.046 106.493C41.9916 106.521 41.9697 106.587 41.9971 106.642C42.0246 106.697 42.091 106.719 42.1454 106.691Z"
    fill="#007B55" />
  <path fill-rule="evenodd" clip-rule="evenodd"
    d="M40.1792 110.046C40.2294 110.011 40.2982 110.024 40.3328 110.074L40.2419 110.137L40.151 110.2C40.1164 110.15 40.129 110.081 40.1792 110.046ZM40.2419 110.137C40.151 110.2 40.151 110.2 40.151 110.2L40.1928 110.261C40.22 110.301 40.2601 110.359 40.3112 110.433C40.4136 110.58 40.5607 110.792 40.7393 111.046C41.0966 111.555 41.5806 112.236 42.087 112.925C42.5931 113.613 43.1226 114.311 43.5709 114.851C43.7948 115.121 43.9999 115.354 44.1724 115.527C44.2587 115.614 44.3382 115.687 44.4091 115.743C44.4779 115.798 44.5464 115.842 44.6098 115.863C44.6677 115.883 44.7301 115.851 44.7492 115.793C44.7683 115.734 44.7368 115.672 44.6789 115.652C44.6531 115.644 44.6093 115.619 44.5457 115.569C44.4842 115.52 44.4113 115.453 44.3284 115.37C44.1628 115.203 43.9626 114.977 43.7404 114.709C43.2963 114.173 42.7698 113.48 42.2645 112.793C41.7594 112.106 41.2764 111.426 40.9197 110.918C40.7413 110.664 40.5946 110.453 40.4924 110.306C40.4413 110.232 40.4014 110.174 40.3743 110.135L40.3328 110.074C40.3328 110.074 40.3328 110.074 40.2419 110.137Z"
    fill="#007B55" />
  <path fill-rule="evenodd" clip-rule="evenodd"
    d="M39.7921 110.978C39.7921 110.917 39.8415 110.867 39.9025 110.867H40.7634C40.8244 110.867 40.8738 110.917 40.8738 110.978C40.8738 111.04 40.8244 111.089 40.7634 111.089H39.9025C39.8415 111.089 39.7921 111.04 39.7921 110.978Z"
    fill="#007B55" />
  <path fill-rule="evenodd" clip-rule="evenodd"
    d="M40.8234 112.943C40.8261 112.882 40.8776 112.834 40.9385 112.837L42.2893 112.895C42.3502 112.898 42.3975 112.95 42.3949 113.011C42.3923 113.072 42.3408 113.12 42.2798 113.117L40.929 113.059C40.8681 113.056 40.8208 113.004 40.8234 112.943Z"
    fill="#007B55" />
  <path fill-rule="evenodd" clip-rule="evenodd"
    d="M41.7787 111.263C41.8384 111.275 41.8767 111.334 41.8643 111.394L41.7177 112.103C41.7053 112.163 41.6468 112.201 41.5871 112.189C41.5274 112.176 41.4891 112.117 41.5015 112.057L41.6481 111.349C41.6605 111.289 41.719 111.25 41.7787 111.263Z"
    fill="#007B55" />
  <path fill-rule="evenodd" clip-rule="evenodd"
    d="M43.1961 113.415C43.257 113.417 43.3044 113.469 43.3019 113.53L43.2755 114.173C43.2729 114.235 43.2215 114.282 43.1606 114.28C43.0996 114.277 43.0523 114.225 43.0548 114.164L43.0812 113.521C43.0837 113.46 43.1352 113.412 43.1961 113.415Z"
    fill="#007B55" />
  <path fill-rule="evenodd" clip-rule="evenodd"
    d="M48.9572 110.074C48.9919 110.024 49.0607 110.011 49.1109 110.046C49.161 110.081 49.1736 110.15 49.1389 110.2L49.0481 110.137L48.9572 110.074ZM48.9572 110.074C48.9572 110.074 48.9572 110.074 49.0481 110.137C49.1389 110.2 49.1389 110.2 49.1389 110.2L49.0971 110.261C49.0698 110.301 49.0297 110.359 48.9784 110.433C48.8758 110.581 48.7285 110.792 48.5495 111.046C48.1915 111.555 47.7068 112.236 47.1999 112.925C46.6931 113.613 46.1633 114.311 45.7153 114.851C45.4914 115.121 45.2866 115.354 45.1145 115.527C45.0285 115.614 44.9492 115.687 44.8787 115.743C44.8103 115.797 44.7422 115.842 44.6792 115.863C44.6213 115.883 44.5588 115.851 44.5396 115.793C44.5203 115.735 44.5516 115.672 44.6095 115.653C44.6348 115.644 44.6784 115.619 44.7417 115.569C44.803 115.52 44.8756 115.453 44.9583 115.37C45.1236 115.204 45.3236 114.977 45.5457 114.709C45.9896 114.173 46.5165 113.48 47.0224 112.793C47.5281 112.106 48.0118 111.426 48.3692 110.918C48.5479 110.664 48.6949 110.453 48.7973 110.305C48.8485 110.232 48.8885 110.174 48.9157 110.134L48.9572 110.074Z"
    fill="#007B55" />
  <path fill-rule="evenodd" clip-rule="evenodd"
    d="M48.4158 110.978C48.4158 110.917 48.4652 110.867 48.5262 110.867H49.3871C49.4481 110.867 49.4975 110.917 49.4975 110.978C49.4975 111.04 49.4481 111.089 49.3871 111.089H48.5262C48.4652 111.089 48.4158 111.04 48.4158 110.978Z"
    fill="#007B55" />
  <path fill-rule="evenodd" clip-rule="evenodd"
    d="M48.4661 112.943C48.4687 113.004 48.4214 113.056 48.3605 113.059L47.0097 113.117C46.9488 113.12 46.8972 113.072 46.8946 113.011C46.892 112.95 46.9393 112.898 47.0002 112.895L48.351 112.837C48.4119 112.834 48.4635 112.882 48.4661 112.943Z"
    fill="#007B55" />
  <path fill-rule="evenodd" clip-rule="evenodd"
    d="M47.5108 111.263C47.5705 111.25 47.629 111.289 47.6414 111.349L47.788 112.057C47.8004 112.117 47.7621 112.176 47.7024 112.189C47.6427 112.201 47.5842 112.163 47.5718 112.103L47.4252 111.394C47.4128 111.334 47.4511 111.275 47.5108 111.263Z"
    fill="#007B55" />
  <path fill-rule="evenodd" clip-rule="evenodd"
    d="M46.0935 113.415C46.1545 113.412 46.2059 113.46 46.2084 113.521L46.2348 114.164C46.2373 114.225 46.19 114.277 46.129 114.28C46.0681 114.282 46.0167 114.235 46.0142 114.173L45.9878 113.53C45.9852 113.469 46.0326 113.417 46.0935 113.415Z"
    fill="#007B55" />
  <defs>
    <linearGradient id="paint0_linear_108_156683" x1="145.224" y1="188.459" x2="224.036" y2="11.9432"
      gradientUnits="userSpaceOnUse">
      <stop stop-color="#00AB55" />
      <stop offset="1" stop-color="#00AB55" stop-opacity="0.01" />
    </linearGradient>
    <linearGradient id="paint1_linear_108_156683" x1="78.8942" y1="60.9947" x2="57.2593" y2="124.479"
      gradientUnits="userSpaceOnUse">
      <stop stop-color="#00AB55" />
      <stop offset="1" stop-color="#007B55" />
    </linearGradient>
  </defs>
</svg>