<svg width="174" height="166" viewBox="0 0 174 166" fill="none" xmlns="http://www.w3.org/2000/svg">
  <mask id="mask0_355_158123" style="mask-type:luminance" maskUnits="userSpaceOnUse" x="0" y="0" width="174"
    height="166">
    <path d="M173.719 0.5H0.279785V165.995H173.719V0.5Z" fill="white" />
  </mask>
  <g mask="url(#mask0_355_158123)">
    <path
      d="M28.1058 77.0389C29.9728 67.3909 37.7138 59.6539 47.3688 57.7859C48.8228 57.5049 49.8718 56.2319 49.8718 54.7509C49.8718 53.2699 48.8218 51.9979 47.3678 51.7169C37.7128 49.8489 29.9718 42.1119 28.1048 32.4639C27.8238 31.0099 26.5508 29.9609 25.0708 29.9609C23.5908 29.9609 22.3178 31.0109 22.0368 32.4639C20.1688 42.1129 12.4318 49.8499 2.78378 51.7169C1.33078 51.9979 0.279785 53.2709 0.279785 54.7509C0.279785 56.2309 1.32979 57.5039 2.78279 57.7859C12.4318 59.6529 20.1688 67.3899 22.0368 77.0389C22.3178 78.4929 23.5908 79.5419 25.0708 79.5419C26.5518 79.5429 27.8238 78.4929 28.1058 77.0389ZM12.4608 54.7519C17.7928 51.8879 22.2078 47.4729 25.0718 42.1409C27.9368 47.4739 32.3538 51.8879 37.6888 54.7519C32.3528 57.6169 27.9368 62.0309 25.0718 67.3639C22.2078 62.0309 17.7928 57.6159 12.4608 54.7519Z"
      fill="#3E6B99" />
    <path
      d="M171.216 28.6077C165.067 27.4177 160.137 22.4907 158.948 16.3467C158.667 14.8927 157.394 13.8438 155.914 13.8438C154.434 13.8438 153.161 14.8937 152.88 16.3467C151.691 22.4907 146.763 27.4187 140.619 28.6077C139.166 28.8887 138.116 30.1618 138.116 31.6418C138.116 33.1228 139.166 34.3948 140.619 34.6758C146.764 35.8648 151.691 40.7927 152.88 46.9367C153.161 48.3907 154.434 49.4397 155.914 49.4397C157.394 49.4397 158.667 48.3897 158.948 46.9367C160.137 40.7927 165.067 35.8658 171.216 34.6758C172.669 34.3948 173.719 33.1218 173.719 31.6418C173.719 30.1608 172.669 28.8887 171.216 28.6077ZM155.94 38.1926C154.262 35.5596 152.033 33.3258 149.403 31.6418C152.032 29.9578 154.262 27.7237 155.94 25.0907C157.637 27.7107 159.883 29.9518 162.508 31.6418C159.883 33.3318 157.636 35.5726 155.94 38.1926Z"
      fill="#3E6B99" />
    <path
      d="M53.823 147.059C48.626 146.053 44.46 141.89 43.456 136.698C43.175 135.244 41.902 134.195 40.421 134.195C38.941 134.195 37.668 135.245 37.387 136.698C36.382 141.89 32.218 146.054 27.025 147.059C25.572 147.34 24.522 148.613 24.522 150.093C24.522 151.574 25.572 152.846 27.026 153.127C32.218 154.131 36.382 158.295 37.387 163.488C37.668 164.942 38.941 165.991 40.421 165.991C41.902 165.991 43.174 164.941 43.456 163.488C44.46 158.296 48.627 154.132 53.823 153.127C55.277 152.846 56.327 151.573 56.327 150.093C56.326 148.613 55.276 147.34 53.823 147.059ZM40.447 155.077C39.112 153.121 37.426 151.432 35.474 150.093C37.426 148.753 39.111 147.064 40.447 145.108C41.796 147.055 43.493 148.749 45.445 150.093C43.493 151.437 41.796 153.13 40.447 155.077Z"
      fill="#3E6B99" />
    <path
      d="M157.582 65.0919C155.772 63.2819 152.836 63.2819 151.026 65.0919L78.9168 137.202C77.1058 139.013 77.1058 141.948 78.9168 143.759L91.7248 156.567C92.6298 157.472 93.8168 157.924 95.0028 157.924C96.1898 157.924 97.3758 157.471 98.2808 156.567L123.696 131.152L133.226 140.682C134.131 141.587 135.318 142.039 136.504 142.039C137.69 142.039 138.877 141.586 139.782 140.682L143.865 136.599L161.928 154.662C162.833 155.567 164.02 156.02 165.206 156.02C166.392 156.02 167.579 155.567 168.484 154.662C170.294 152.851 170.294 149.916 168.484 148.105L150.421 130.042L154.504 125.959C155.374 125.089 155.862 123.91 155.862 122.681C155.862 121.452 155.374 120.273 154.504 119.403L144.974 109.873L170.389 84.4579C172.2 82.6469 172.2 79.7119 170.389 77.9009L157.582 65.0919ZM144.671 122.681L140.589 126.763L140.588 126.764L140.587 126.766L136.505 130.848L130.253 124.596L138.42 116.429L144.671 122.681ZM135.141 106.594L120.418 121.317L120.415 121.32L95.0018 146.733L88.7498 140.481L154.303 74.9279L160.555 81.1799L135.141 106.594Z"
      fill="#3E6B99" />
    <path
      d="M37.947 89.67C36.137 87.86 33.201 87.86 31.391 89.67C29.58 91.481 29.58 94.416 31.391 96.227L65.344 130.18C66.249 131.085 67.435 131.538 68.622 131.538C69.808 131.538 70.995 131.085 71.9 130.18C73.711 128.369 73.711 125.434 71.9 123.623L37.947 89.67Z"
      fill="#5BACC2" />
    <path
      d="M49.921 85.9145L63.879 99.8725C64.784 100.777 65.97 101.23 67.157 101.23C68.343 101.23 69.53 100.777 70.435 99.8725C72.246 98.0615 72.246 95.1265 70.435 93.3155L56.477 79.3575C54.667 77.5475 51.731 77.5475 49.921 79.3575C48.111 81.1685 48.111 84.1035 49.921 85.9145Z"
      fill="#5BACC2" />
    <path
      d="M78.8899 101.772C77.0799 99.962 74.1439 99.961 72.3339 101.771C70.5239 103.581 70.5229 106.517 72.3339 108.327L78.145 114.139C79.05 115.044 80.237 115.497 81.423 115.497C82.609 115.497 83.796 115.044 84.701 114.14C86.511 112.33 86.512 109.394 84.701 107.584L78.8899 101.772Z"
      fill="#5BACC2" />
    <path
      d="M91.439 92.033C93.25 90.222 93.25 87.287 91.439 85.476L60.508 54.545C58.698 52.735 55.762 52.735 53.952 54.545C52.141 56.356 52.141 59.291 53.952 61.102L84.883 92.033C85.788 92.938 86.975 93.39 88.161 93.39C89.347 93.39 90.533 92.938 91.439 92.033Z"
      fill="#5BACC2" />
    <path
      d="M109.563 87.8721C110.468 88.7771 111.654 89.2301 112.841 89.2301C114.027 89.2301 115.214 88.7771 116.119 87.8721C117.93 86.0611 117.93 83.1261 116.119 81.3151L58.3879 23.5841C56.5779 21.7741 53.6429 21.7741 51.8319 23.5841C50.0209 25.3951 50.0209 28.3301 51.8319 30.1411L109.563 87.8721Z"
      fill="#5BACC2" />
    <path
      d="M88.3256 37.791C89.2306 38.696 90.4176 39.149 91.6036 39.149C92.7896 39.149 93.9766 38.696 94.8816 37.791C96.6926 35.98 96.6926 33.045 94.8816 31.234L83.0676 19.42C81.2576 17.61 78.3216 17.61 76.5116 19.42C74.7006 21.231 74.7006 24.166 76.5116 25.977L88.3256 37.791Z"
      fill="#5BACC2" />
    <path
      d="M111.402 54.3099C109.591 56.1209 109.591 59.0559 111.402 60.8669L123.216 72.6809C124.121 73.5859 125.308 74.0389 126.494 74.0389C127.68 74.0389 128.867 73.5859 129.772 72.6809C131.583 70.8699 131.583 67.9349 129.772 66.1239L117.958 54.3099C116.148 52.5009 113.212 52.5009 111.402 54.3099Z"
      fill="#5BACC2" />
    <path
      d="M132.213 52.8355C133.118 53.7405 134.305 54.1935 135.491 54.1935C136.677 54.1935 137.864 53.7405 138.769 52.8355C140.58 51.0245 140.58 48.0895 138.769 46.2785L94.3478 1.8575C92.5378 0.0474991 89.6018 0.0474991 87.7918 1.8575C85.9808 3.6685 85.9808 6.6035 87.7918 8.4145L132.213 52.8355Z"
      fill="#5BACC2" />
  </g>
</svg>